Flachbau-Regular.ufo
<glyph name="exclam" format="2">
  <advance width="288"/>
  <unicode hex="0021"/>
  <outline>
    <contour>
      <point x="85" y="0" type="line"/>
      <point x="203" y="0" type="line"/>
      <point x="203" y="104" type="line"/>
      <point x="85" y="104" type="line"/>
    </contour>
    <contour>
      <point x="95" y="755" type="line"/>
      <point x="109" y="220" type="line"/>
      <point x="179" y="220" type="line"/>
      <point x="193" y="755" type="line"/>
      <point x="193" y="763" type="line"/>
      <point x="95" y="763" type="line"/>
    </contour>
  </outline>
</glyph>
<glyph name="quotedbl" format="2">
  <advance width="385"/>
  <unicode hex="0022"/>
  <outline>
    <contour>
      <point x="75" y="755" type="line"/>
      <point x="91" y="525" type="line"/>
      <point x="161" y="525" type="line"/>
      <point x="175" y="755" type="line" smooth="yes"/>
      <point x="175" y="763" type="line"/>
      <point x="75" y="763" type="line"/>
    </contour>
    <contour>
      <point x="225" y="755" type="line"/>
      <point x="241" y="525" type="line"/>
      <point x="311" y="525" type="line"/>
      <point x="325" y="755" type="line" smooth="yes"/>
      <point x="325" y="763" type="line"/>
      <point x="225" y="763" type="line"/>
    </contour>
  </outline>
</glyph>
<glyph name="numbersign" format="2">
  <advance width="801"/>
  <unicode hex="0023"/>
  <outline>
    <contour>
      <point x="75" y="0" type="line"/>
      <point x="163" y="0" type="line"/>
      <point x="438" y="755" type="line"/>
      <point x="438" y="763" type="line"/>
      <point x="350" y="763" type="line"/>
      <point x="75" y="8" type="line"/>
    </contour>
    <contour>
      <point x="363" y="0" type="line"/>
      <point x="451" y="0" type="line"/>
      <point x="726" y="755" type="line"/>
      <point x="726" y="763" type="line"/>
      <point x="638" y="763" type="line"/>
      <point x="363" y="8" type="line"/>
    </contour>
    <contour>
      <point x="90" y="455" type="line"/>
      <point x="726" y="455" type="line"/>
      <point x="726" y="525" type="line"/>
      <point x="90" y="525" type="line"/>
    </contour>
    <contour>
      <point x="75" y="240" type="line"/>
      <point x="711" y="240" type="line"/>
      <point x="711" y="310" type="line"/>
      <point x="75" y="310" type="line"/>
    </contour>
  </outline>
</glyph>
<glyph name="dollar" format="2">
  <advance width="695"/>
  <unicode hex="0024"/>
  <outline>
    <contour>
      <point x="655" y="215" type="curve" smooth="yes"/>
      <point x="655" y="348"/>
      <point x="548" y="426"/>
      <point x="336" y="440" type="curve" smooth="yes"/>
      <point x="200" y="449"/>
      <point x="147" y="482"/>
      <point x="147" y="556" type="curve" smooth="yes"/>
      <point x="147" y="642"/>
      <point x="219" y="696"/>
      <point x="336" y="696" type="curve" smooth="yes"/>
      <point x="461" y="696"/>
      <point x="541" y="634"/>
      <point x="556" y="523" type="curve"/>
      <point x="654" y="523" type="line"/>
      <point x="654" y="531" type="line"/>
      <point x="643" y="679"/>
      <point x="517" y="776"/>
      <point x="335" y="776" type="curve" smooth="yes"/>
      <point x="163" y="776"/>
      <point x="50" y="689"/>
      <point x="50" y="553" type="curve" smooth="yes"/>
      <point x="50" y="424"/>
      <point x="152" y="352"/>
      <point x="351" y="342" type="curve" smooth="yes"/>
      <point x="496" y="335"/>
      <point x="558" y="296"/>
      <point x="558" y="212" type="curve" smooth="yes"/>
      <point x="558" y="120"/>
      <point x="483" y="63"/>
      <point x="364" y="63" type="curve" smooth="yes"/>
      <point x="236" y="63"/>
      <point x="150" y="129"/>
      <point x="133" y="238" type="curve"/>
      <point x="35" y="238" type="line"/>
      <point x="35" y="230" type="line"/>
      <point x="49" y="81"/>
      <point x="179" y="-17"/>
      <point x="361" y="-17" type="curve" smooth="yes"/>
      <point x="539" y="-17"/>
      <point x="655" y="76"/>
    </contour>
    <contour>
      <point x="316" y="724" type="line"/>
      <point x="404" y="724" type="line"/>
      <point x="404" y="863" type="line"/>
      <point x="316" y="863" type="line"/>
    </contour>
    <contour>
      <point x="316" y="-100" type="line"/>
      <point x="404" y="-100" type="line"/>
      <point x="404" y="39" type="line"/>
      <point x="316" y="39" type="line"/>
    </contour>
  </outline>
</glyph>
<glyph name="percent" format="2">
  <advance width="814"/>
  <unicode hex="0025"/>
  <outline>
    <contour>
      <point x="216" y="0" type="line"/>
      <point x="304" y="0" type="line"/>
      <point x="579" y="755" type="line"/>
      <point x="579" y="763" type="line"/>
      <point x="506" y="763" type="line"/>
      <point x="503" y="753"/>
      <point x="472" y="746"/>
      <point x="437" y="746" type="curve" smooth="yes"/>
      <point x="361" y="746"/>
      <point x="325" y="778"/>
      <point x="216" y="778" type="curve" smooth="yes"/>
      <point x="126" y="778"/>
      <point x="53" y="708"/>
      <point x="35" y="603" type="curve" smooth="yes"/>
      <point x="16" y="498"/>
      <point x="64" y="428"/>
      <point x="154" y="428" type="curve" smooth="yes"/>
      <point x="244" y="428"/>
      <point x="316" y="498"/>
      <point x="335" y="603" type="curve" smooth="yes"/>
      <point x="341" y="635"/>
      <point x="340" y="664"/>
      <point x="334" y="689" type="curve"/>
      <point x="352" y="682"/>
      <point x="371" y="676"/>
      <point x="399" y="676" type="curve" smooth="yes"/>
      <point x="430" y="676"/>
      <point x="454" y="683"/>
      <point x="459" y="698" type="curve"/>
      <point x="467" y="698" type="line"/>
      <point x="216" y="8" type="line"/>
    </contour>
    <contour>
      <point x="120" y="603" type="curve" smooth="yes"/>
      <point x="131" y="666"/>
      <point x="165" y="710"/>
      <point x="202" y="710" type="curve" smooth="yes"/>
      <point x="239" y="710"/>
      <point x="261" y="666"/>
      <point x="250" y="603" type="curve" smooth="yes"/>
      <point x="239" y="540"/>
      <point x="202" y="496"/>
      <point x="165" y="496" type="curve" smooth="yes"/>
      <point x="128" y="496"/>
      <point x="109" y="540"/>
    </contour>
    <contour>
      <point x="460" y="160" type="curve" smooth="yes"/>
      <point x="441" y="55"/>
      <point x="489" y="-15"/>
      <point x="579" y="-15" type="curve" smooth="yes"/>
      <point x="669" y="-15"/>
      <point x="741" y="55"/>
      <point x="760" y="160" type="curve" smooth="yes"/>
      <point x="778" y="265"/>
      <point x="731" y="335"/>
      <point x="641" y="335" type="curve" smooth="yes"/>
      <point x="551" y="335"/>
      <point x="478" y="265"/>
    </contour>
    <contour>
      <point x="545" y="160" type="curve" smooth="yes"/>
      <point x="556" y="223"/>
      <point x="590" y="267"/>
      <point x="627" y="267" type="curve" smooth="yes"/>
      <point x="664" y="267"/>
      <point x="686" y="223"/>
      <point x="675" y="160" type="curve" smooth="yes"/>
      <point x="664" y="97"/>
      <point x="629" y="53"/>
      <point x="592" y="53" type="curve" smooth="yes"/>
      <point x="555" y="53"/>
      <point x="534" y="97"/>
    </contour>
  </outline>
</glyph>
<glyph name="ampersand" format="2">
  <advance width="745"/>
  <unicode hex="0026"/>
  <outline>
    <contour>
      <point x="552" y="0" type="line"/>
      <point x="199" y="432" type="line" smooth="yes"/>
      <point x="154" y="487"/>
      <point x="128" y="543"/>
      <point x="128" y="602" type="curve" smooth="yes"/>
      <point x="128" y="707"/>
      <point x="211" y="778"/>
      <point x="341" y="778" type="curve" smooth="yes"/>
      <point x="470" y="778"/>
      <point x="554" y="707"/>
      <point x="554" y="601" type="curve" smooth="yes"/>
      <point x="554" y="520"/>
      <point x="504" y="453"/>
      <point x="420" y="424" type="curve" smooth="yes"/>
      <point x="236" y="360" type="line" smooth="yes"/>
      <point x="159" y="333"/>
      <point x="118" y="284"/>
      <point x="118" y="220" type="curve" smooth="yes"/>
      <point x="118" y="140"/>
      <point x="183" y="55"/>
      <point x="316" y="55" type="curve" smooth="yes"/>
      <point x="472" y="55"/>
      <point x="565" y="173"/>
      <point x="587" y="413" type="curve"/>
      <point x="675" y="412" type="line"/>
      <point x="675" y="404" type="line"/>
      <point x="648" y="127"/>
      <point x="523" y="-15"/>
      <point x="310" y="-15" type="curve" smooth="yes"/>
      <point x="125" y="-15"/>
      <point x="30" y="93"/>
      <point x="30" y="214" type="curve" smooth="yes"/>
      <point x="30" y="312"/>
      <point x="93" y="388"/>
      <point x="207" y="428" type="curve" smooth="yes"/>
      <point x="380" y="488" type="line" smooth="yes"/>
      <point x="435" y="507"/>
      <point x="466" y="549"/>
      <point x="466" y="601" type="curve" smooth="yes"/>
      <point x="466" y="665"/>
      <point x="418" y="708"/>
      <point x="342" y="708" type="curve" smooth="yes"/>
      <point x="266" y="708"/>
      <point x="216" y="666"/>
      <point x="216" y="603" type="curve" smooth="yes"/>
      <point x="216" y="556"/>
      <point x="243" y="512"/>
      <point x="290" y="456" type="curve" smooth="yes"/>
      <point x="660" y="8" type="line"/>
      <point x="660" y="0" type="line"/>
    </contour>
  </outline>
</glyph>
<glyph name="quotesingle" format="2">
  <advance width="235"/>
  <unicode hex="0027"/>
  <outline>
    <contour>
      <point x="75" y="755" type="line"/>
      <point x="91" y="525" type="line"/>
      <point x="161" y="525" type="line"/>
      <point x="175" y="755" type="line" smooth="yes"/>
      <point x="175" y="763" type="line"/>
      <point x="75" y="763" type="line"/>
    </contour>
  </outline>
</glyph>
<glyph name="parenleft" format="2">
  <advance width="335"/>
  <unicode hex="0028"/>
  <outline>
    <contour>
      <point x="217" y="-167" type="curve"/>
      <point x="305" y="-167" type="line"/>
      <point x="305" y="-159" type="line"/>
      <point x="214" y="-37"/>
      <point x="153" y="158"/>
      <point x="153" y="333" type="curve" smooth="yes"/>
      <point x="153" y="504"/>
      <point x="214" y="701"/>
      <point x="305" y="825" type="curve"/>
      <point x="305" y="833" type="line"/>
      <point x="217" y="833" type="line"/>
      <point x="121" y="713"/>
      <point x="55" y="508"/>
      <point x="55" y="333" type="curve" smooth="yes"/>
      <point x="55" y="158"/>
      <point x="121" y="-47"/>
    </contour>
  </outline>
</glyph>
<glyph name="parenright" format="2">
  <advance width="335"/>
  <unicode hex="0029"/>
  <outline>
    <contour>
      <point x="118" y="-167" type="line"/>
      <point x="214" y="-47"/>
      <point x="280" y="158"/>
      <point x="280" y="333" type="curve" smooth="yes"/>
      <point x="280" y="508"/>
      <point x="214" y="713"/>
      <point x="118" y="833" type="curve"/>
      <point x="30" y="833" type="line"/>
      <point x="30" y="825" type="line"/>
      <point x="121" y="701"/>
      <point x="182" y="504"/>
      <point x="182" y="333" type="curve" smooth="yes"/>
      <point x="182" y="158"/>
      <point x="121" y="-37"/>
      <point x="30" y="-159" type="curve"/>
      <point x="30" y="-167" type="line"/>
    </contour>
  </outline>
</glyph>
<glyph name="asterisk" format="2">
  <advance width="514"/>
  <unicode hex="002A"/>
  <outline>
    <contour>
      <point x="114" y="475" type="line"/>
      <point x="194" y="418" type="line"/>
      <point x="253" y="532" type="line"/>
      <point x="261" y="532" type="line"/>
      <point x="320" y="418" type="line"/>
      <point x="400" y="475" type="line"/>
      <point x="308" y="565" type="line"/>
      <point x="311" y="574" type="line" smooth="yes"/>
      <point x="439" y="595" type="line"/>
      <point x="408" y="689" type="line"/>
      <point x="293" y="629" type="line"/>
      <point x="286" y="634" type="line" smooth="yes"/>
      <point x="306" y="763" type="line"/>
      <point x="208" y="763" type="line"/>
      <point x="228" y="634" type="line"/>
      <point x="221" y="629" type="line" smooth="yes"/>
      <point x="106" y="689" type="line"/>
      <point x="75" y="595" type="line"/>
      <point x="204" y="574" type="line"/>
      <point x="207" y="565" type="line" smooth="yes"/>
      <point x="114" y="475" type="line"/>
    </contour>
  </outline>
</glyph>
<glyph name="plus" format="2">
  <advance width="610"/>
  <unicode hex="002B"/>
  <outline>
    <contour>
      <point x="261" y="174" type="line"/>
      <point x="349" y="174" type="line"/>
      <point x="349" y="644" type="line"/>
      <point x="261" y="644" type="line"/>
    </contour>
    <contour>
      <point x="535" y="372" type="line"/>
      <point x="535" y="442" type="line"/>
      <point x="75" y="442" type="line"/>
      <point x="75" y="372" type="line"/>
    </contour>
  </outline>
</glyph>
<glyph name="comma" format="2">
  <advance width="253"/>
  <unicode hex="002C"/>
  <outline>
    <contour>
      <point x="75" y="-116" type="line"/>
      <point x="83" y="-116" type="line"/>
      <point x="171" y="-54" type="line" smooth="yes"/>
      <point x="188" y="-42"/>
      <point x="193" y="-33"/>
      <point x="193" y="-13" type="curve" smooth="yes"/>
      <point x="193" y="0" type="line"/>
      <point x="143" y="0" type="line"/>
      <point x="143" y="-8" type="line" smooth="yes"/>
      <point x="75" y="-52" type="line"/>
    </contour>
    <contour>
      <point x="75" y="0" type="line"/>
      <point x="193" y="0" type="line"/>
      <point x="193" y="104" type="line"/>
      <point x="75" y="104" type="line"/>
    </contour>
  </outline>
</glyph>
<glyph name="hyphen" format="2">
  <advance width="440"/>
  <unicode hex="002D"/>
  <anchor x="220" y="284" name="_middle"/>
  <outline>
    <contour>
      <point x="365" y="249" type="line"/>
      <point x="365" y="319" type="line"/>
      <point x="75" y="319" type="line"/>
      <point x="75" y="249" type="line"/>
    </contour>
  </outline>
</glyph>
<glyph name="period" format="2">
  <advance width="253"/>
  <unicode hex="002E"/>
  <outline>
    <contour>
      <point x="75" y="0" type="line"/>
      <point x="193" y="0" type="line"/>
      <point x="193" y="104" type="line"/>
      <point x="75" y="104" type="line"/>
    </contour>
  </outline>
</glyph>
<glyph name="slash" format="2">
  <advance width="423"/>
  <unicode hex="002F"/>
  <outline>
    <contour>
      <point x="30" y="0" type="line"/>
      <point x="118" y="0" type="line"/>
      <point x="393" y="755" type="line"/>
      <point x="393" y="763" type="line"/>
      <point x="305" y="763" type="line"/>
      <point x="30" y="8" type="line"/>
    </contour>
  </outline>
</glyph>
<glyph name="zero" format="2">
  <advance width="740"/>
  <unicode hex="0030"/>
  <outline>
    <contour>
      <point x="60" y="381" type="curve" smooth="yes"/>
      <point x="60" y="137"/>
      <point x="179" y="-15"/>
      <point x="371" y="-15" type="curve" smooth="yes"/>
      <point x="562" y="-15"/>
      <point x="680" y="137"/>
      <point x="680" y="381" type="curve" smooth="yes"/>
      <point x="680" y="625"/>
      <point x="562" y="778"/>
      <point x="371" y="778" type="curve" smooth="yes"/>
      <point x="180" y="778"/>
      <point x="60" y="626"/>
    </contour>
    <contour>
      <point x="158" y="380" type="curve" smooth="yes"/>
      <point x="158" y="575"/>
      <point x="240" y="698"/>
      <point x="370" y="698" type="curve" smooth="yes"/>
      <point x="501" y="698"/>
      <point x="582" y="575"/>
      <point x="582" y="380" type="curve" smooth="yes"/>
      <point x="582" y="187"/>
      <point x="501" y="65"/>
      <point x="370" y="65" type="curve" smooth="yes"/>
      <point x="240" y="65"/>
      <point x="158" y="187"/>
    </contour>
  </outline>
</glyph>
<glyph name="one" format="2">
  <advance width="425"/>
  <unicode hex="0031"/>
  <outline>
    <contour>
      <point x="252" y="0" type="line"/>
      <point x="350" y="0" type="line"/>
      <point x="350" y="763" type="line"/>
      <point x="252" y="763" type="line"/>
    </contour>
    <contour>
      <point x="252" y="709" type="line"/>
      <point x="252" y="667"/>
      <point x="228" y="644"/>
      <point x="186" y="644" type="curve" smooth="yes"/>
      <point x="75" y="644" type="line"/>
      <point x="75" y="564" type="line"/>
      <point x="202" y="564" type="line"/>
      <point x="225" y="564"/>
      <point x="241" y="572"/>
      <point x="244" y="585" type="curve"/>
      <point x="252" y="585" type="line"/>
    </contour>
  </outline>
</glyph>
<glyph name="two" format="2">
  <advance width="675"/>
  <unicode hex="0032"/>
  <outline>
    <contour>
      <point x="431" y="436" type="line" smooth="yes"/>
      <point x="510" y="476"/>
      <point x="537" y="516"/>
      <point x="537" y="570" type="curve" smooth="yes"/>
      <point x="537" y="652"/>
      <point x="476" y="698"/>
      <point x="366" y="698" type="curve" smooth="yes"/>
      <point x="247" y="698"/>
      <point x="181" y="637"/>
      <point x="176" y="525" type="curve"/>
      <point x="80" y="525" type="line"/>
      <point x="80" y="533" type="line"/>
      <point x="92" y="687"/>
      <point x="199" y="778"/>
      <point x="366" y="778" type="curve" smooth="yes"/>
      <point x="529" y="778"/>
      <point x="635" y="700"/>
      <point x="635" y="580" type="curve" smooth="yes"/>
      <point x="635" y="492"/>
      <point x="578" y="410"/>
      <point x="468" y="354" type="curve" smooth="yes"/>
      <point x="331" y="284" type="line" smooth="yes"/>
      <point x="203" y="219"/>
      <point x="163" y="146"/>
      <point x="163" y="0" type="curve"/>
      <point x="65" y="0" type="line"/>
      <point x="65" y="174"/>
      <point x="131" y="284"/>
      <point x="289" y="364" type="curve" smooth="yes"/>
    </contour>
    <contour>
      <point x="134" y="80" type="line"/>
      <point x="620" y="80" type="line"/>
      <point x="620" y="0" type="line"/>
      <point x="134" y="0" type="line"/>
    </contour>
  </outline>
</glyph>
<glyph name="three" format="2">
  <advance width="690"/>
  <unicode hex="0033"/>
  <outline>
    <contour>
      <point x="75" y="525" type="line"/>
      <point x="75" y="533" type="line"/>
      <point x="85" y="671"/>
      <point x="198" y="778"/>
      <point x="357" y="778" type="curve" smooth="yes"/>
      <point x="511" y="778"/>
      <point x="616" y="694"/>
      <point x="616" y="570" type="curve" smooth="yes"/>
      <point x="616" y="487"/>
      <point x="574" y="430"/>
      <point x="494" y="408" type="curve"/>
      <point x="494" y="400" type="line"/>
      <point x="597" y="372"/>
      <point x="650" y="305"/>
      <point x="650" y="208" type="curve" smooth="yes"/>
      <point x="650" y="74"/>
      <point x="539" y="-15"/>
      <point x="371" y="-15" type="curve" smooth="yes"/>
      <point x="202" y="-15"/>
      <point x="84" y="92"/>
      <point x="75" y="232" type="curve"/>
      <point x="75" y="240" type="line"/>
      <point x="173" y="240" type="line"/>
      <point x="173" y="140"/>
      <point x="246" y="65"/>
      <point x="374" y="65" type="curve" smooth="yes"/>
      <point x="489" y="65"/>
      <point x="552" y="116"/>
      <point x="552" y="215" type="curve" smooth="yes"/>
      <point x="552" y="317"/>
      <point x="493" y="362"/>
      <point x="357" y="362" type="curve" smooth="yes"/>
      <point x="270" y="362" type="line"/>
      <point x="270" y="442" type="line"/>
      <point x="357" y="442" type="line" smooth="yes"/>
      <point x="469" y="442"/>
      <point x="518" y="482"/>
      <point x="518" y="569" type="curve" smooth="yes"/>
      <point x="518" y="654"/>
      <point x="464" y="698"/>
      <point x="364" y="698" type="curve" smooth="yes"/>
      <point x="243" y="698"/>
      <point x="173" y="625"/>
      <point x="173" y="525" type="curve"/>
    </contour>
  </outline>
</glyph>
<glyph name="four" format="2">
  <advance width="669"/>
  <unicode hex="0034"/>
  <outline>
    <contour>
      <point x="448" y="763" type="line"/>
      <point x="448" y="240" type="line"/>
      <point x="128" y="240" type="line"/>
      <point x="128" y="248" type="line"/>
      <point x="272" y="338"/>
      <point x="350" y="487"/>
      <point x="350" y="672" type="curve" smooth="yes"/>
      <point x="350" y="763" type="line"/>
      <point x="252" y="763" type="line"/>
      <point x="252" y="672" type="line" smooth="yes"/>
      <point x="252" y="499"/>
      <point x="209" y="418"/>
      <point x="30" y="244" type="curve"/>
      <point x="30" y="160" type="line"/>
      <point x="448" y="160" type="line"/>
      <point x="448" y="0" type="line"/>
      <point x="546" y="0" type="line"/>
      <point x="546" y="160" type="line"/>
      <point x="634" y="160" type="line"/>
      <point x="634" y="240" type="line"/>
      <point x="546" y="240" type="line"/>
      <point x="546" y="763" type="line"/>
    </contour>
  </outline>
</glyph>
<glyph name="five" format="2">
  <advance width="660"/>
  <unicode hex="0035"/>
  <outline>
    <contour>
      <point x="40" y="237" type="line"/>
      <point x="40" y="229" type="line"/>
      <point x="60" y="77"/>
      <point x="170" y="-15"/>
      <point x="329" y="-15" type="curve" smooth="yes"/>
      <point x="502" y="-15"/>
      <point x="610" y="94"/>
      <point x="610" y="270" type="curve" smooth="yes"/>
      <point x="610" y="442"/>
      <point x="507" y="540"/>
      <point x="344" y="540" type="curve" smooth="yes"/>
      <point x="247" y="540"/>
      <point x="180" y="505"/>
      <point x="160" y="445" type="curve"/>
      <point x="152" y="445" type="line"/>
      <point x="189" y="683" type="line"/>
      <point x="595" y="683" type="line"/>
      <point x="595" y="763" type="line"/>
      <point x="96" y="765" type="line"/>
      <point x="59" y="361" type="line"/>
      <point x="59" y="353" type="line"/>
      <point x="157" y="353" type="line"/>
      <point x="174" y="424"/>
      <point x="227" y="460"/>
      <point x="317" y="460" type="curve" smooth="yes"/>
      <point x="447" y="460"/>
      <point x="512" y="386"/>
      <point x="512" y="265" type="curve" smooth="yes"/>
      <point x="512" y="139"/>
      <point x="441" y="65"/>
      <point x="327" y="65" type="curve" smooth="yes"/>
      <point x="226" y="65"/>
      <point x="161" y="123"/>
      <point x="146" y="237" type="curve"/>
    </contour>
  </outline>
</glyph>
<glyph name="six" format="2">
  <advance width="675"/>
  <unicode hex="0036"/>
  <outline>
    <contour>
      <point x="595" y="525" type="line"/>
      <point x="497" y="524" type="line"/>
      <point x="490" y="645"/>
      <point x="433" y="699"/>
      <point x="341" y="699" type="curve" smooth="yes"/>
      <point x="211" y="699"/>
      <point x="151" y="601"/>
      <point x="144" y="382" type="curve"/>
      <point x="152" y="382" type="line"/>
      <point x="183" y="453"/>
      <point x="266" y="497"/>
      <point x="364" y="497" type="curve" smooth="yes"/>
      <point x="512" y="497"/>
      <point x="610" y="397"/>
      <point x="610" y="247" type="curve" smooth="yes"/>
      <point x="610" y="89"/>
      <point x="506" y="-15"/>
      <point x="345" y="-15" type="curve" smooth="yes"/>
      <point x="148" y="-15"/>
      <point x="50" y="114"/>
      <point x="50" y="381" type="curve" smooth="yes"/>
      <point x="50" y="646"/>
      <point x="146" y="778"/>
      <point x="344" y="778" type="curve" smooth="yes"/>
      <point x="487" y="778"/>
      <point x="583" y="689"/>
      <point x="595" y="533" type="curve"/>
    </contour>
    <contour>
      <point x="169" y="241" type="curve" smooth="yes"/>
      <point x="169" y="128"/>
      <point x="232" y="65"/>
      <point x="343" y="65" type="curve" smooth="yes"/>
      <point x="449" y="65"/>
      <point x="512" y="131"/>
      <point x="512" y="241" type="curve" smooth="yes"/>
      <point x="512" y="351"/>
      <point x="450" y="417"/>
      <point x="343" y="417" type="curve" smooth="yes"/>
      <point x="236" y="417"/>
      <point x="169" y="351"/>
    </contour>
  </outline>
</glyph>
<glyph name="seven" format="2">
  <advance width="610"/>
  <unicode hex="0037"/>
  <outline>
    <contour>
      <point x="20" y="683" type="line"/>
      <point x="463" y="683" type="line"/>
      <point x="463" y="675" type="line"/>
      <point x="292" y="601"/>
      <point x="205" y="456"/>
      <point x="205" y="184" type="curve" smooth="yes"/>
      <point x="205" y="0" type="line"/>
      <point x="303" y="0" type="line"/>
      <point x="303" y="184" type="line" smooth="yes"/>
      <point x="303" y="445"/>
      <point x="343" y="530"/>
      <point x="585" y="665" type="curve"/>
      <point x="585" y="763" type="line"/>
      <point x="20" y="763" type="line"/>
    </contour>
  </outline>
</glyph>
<glyph name="eight" format="2">
  <advance width="665"/>
  <unicode hex="0038"/>
  <outline>
    <contour>
      <point x="40" y="194" type="curve" smooth="yes"/>
      <point x="40" y="71"/>
      <point x="157" y="-15"/>
      <point x="332" y="-15" type="curve" smooth="yes"/>
      <point x="508" y="-15"/>
      <point x="625" y="72"/>
      <point x="625" y="197" type="curve" smooth="yes"/>
      <point x="625" y="289"/>
      <point x="562" y="363"/>
      <point x="457" y="400" type="curve"/>
      <point x="457" y="408" type="line"/>
      <point x="542" y="440"/>
      <point x="588" y="502"/>
      <point x="588" y="582" type="curve" smooth="yes"/>
      <point x="588" y="700"/>
      <point x="486" y="778"/>
      <point x="333" y="778" type="curve" smooth="yes"/>
      <point x="180" y="778"/>
      <point x="78" y="701"/>
      <point x="78" y="583" type="curve" smooth="yes"/>
      <point x="78" y="503"/>
      <point x="125" y="441"/>
      <point x="211" y="408" type="curve"/>
      <point x="211" y="400" type="line"/>
      <point x="105" y="362"/>
      <point x="40" y="286"/>
    </contour>
    <contour>
      <point x="176" y="570" type="curve" smooth="yes"/>
      <point x="176" y="648"/>
      <point x="239" y="698"/>
      <point x="333" y="698" type="curve" smooth="yes"/>
      <point x="427" y="698"/>
      <point x="490" y="648"/>
      <point x="490" y="570" type="curve" smooth="yes"/>
      <point x="490" y="493"/>
      <point x="427" y="442"/>
      <point x="333" y="442" type="curve" smooth="yes"/>
      <point x="239" y="442"/>
      <point x="176" y="493"/>
    </contour>
    <contour>
      <point x="138" y="214" type="curve" smooth="yes"/>
      <point x="138" y="303"/>
      <point x="216" y="362"/>
      <point x="333" y="362" type="curve" smooth="yes"/>
      <point x="449" y="362"/>
      <point x="527" y="303"/>
      <point x="527" y="214" type="curve" smooth="yes"/>
      <point x="527" y="124"/>
      <point x="449" y="65"/>
      <point x="333" y="65" type="curve" smooth="yes"/>
      <point x="216" y="65"/>
      <point x="138" y="124"/>
    </contour>
  </outline>
</glyph>
<glyph name="nine" format="2">
  <advance width="650"/>
  <unicode hex="0039"/>
  <outline>
    <contour>
      <point x="55" y="240" type="line"/>
      <point x="153" y="241" type="line"/>
      <point x="162" y="126"/>
      <point x="222" y="64"/>
      <point x="323" y="64" type="curve" smooth="yes"/>
      <point x="449" y="64"/>
      <point x="499" y="162"/>
      <point x="506" y="381" type="curve"/>
      <point x="498" y="381" type="line"/>
      <point x="467" y="310"/>
      <point x="384" y="266"/>
      <point x="286" y="266" type="curve" smooth="yes"/>
      <point x="138" y="266"/>
      <point x="40" y="366"/>
      <point x="40" y="516" type="curve" smooth="yes"/>
      <point x="40" y="674"/>
      <point x="144" y="778"/>
      <point x="305" y="778" type="curve" smooth="yes"/>
      <point x="502" y="778"/>
      <point x="600" y="649"/>
      <point x="600" y="382" type="curve" smooth="yes"/>
      <point x="600" y="116"/>
      <point x="513" y="-15"/>
      <point x="328" y="-15" type="curve" smooth="yes"/>
      <point x="171" y="-15"/>
      <point x="70" y="80"/>
      <point x="55" y="232" type="curve"/>
    </contour>
    <contour>
      <point x="481" y="522" type="curve" smooth="yes"/>
      <point x="481" y="635"/>
      <point x="418" y="698"/>
      <point x="307" y="698" type="curve" smooth="yes"/>
      <point x="201" y="698"/>
      <point x="138" y="632"/>
      <point x="138" y="522" type="curve" smooth="yes"/>
      <point x="138" y="412"/>
      <point x="200" y="346"/>
      <point x="307" y="346" type="curve" smooth="yes"/>
      <point x="414" y="346"/>
      <point x="481" y="412"/>
    </contour>
  </outline>
</glyph>
<glyph name="colon" format="2">
  <advance width="253"/>
  <unicode hex="003A"/>
  <outline>
    <contour>
      <point x="75" y="0" type="line"/>
      <point x="193" y="0" type="line"/>
      <point x="193" y="104" type="line"/>
      <point x="75" y="104" type="line"/>
    </contour>
    <contour>
      <point x="75" y="421" type="line"/>
      <point x="193" y="421" type="line"/>
      <point x="193" y="525" type="line"/>
      <point x="75" y="525" type="line"/>
    </contour>
  </outline>
</glyph>
<glyph name="semicolon" format="2">
  <advance width="253"/>
  <unicode hex="003B"/>
  <outline>
    <contour>
      <point x="75" y="-116" type="line"/>
      <point x="83" y="-116" type="line"/>
      <point x="171" y="-54" type="line" smooth="yes"/>
      <point x="188" y="-42"/>
      <point x="193" y="-33"/>
      <point x="193" y="-13" type="curve" smooth="yes"/>
      <point x="193" y="0" type="line"/>
      <point x="143" y="0" type="line"/>
      <point x="143" y="-8" type="line" smooth="yes"/>
      <point x="75" y="-52" type="line"/>
    </contour>
    <contour>
      <point x="75" y="0" type="line"/>
      <point x="193" y="0" type="line"/>
      <point x="193" y="104" type="line"/>
      <point x="75" y="104" type="line"/>
    </contour>
    <contour>
      <point x="75" y="421" type="line"/>
      <point x="193" y="421" type="line"/>
      <point x="193" y="525" type="line"/>
      <point x="75" y="525" type="line"/>
    </contour>
  </outline>
</glyph>
<glyph name="less" format="2">
  <advance width="600"/>
  <unicode hex="003C"/>
  <outline>
    <contour>
      <point x="75" y="424" type="line"/>
      <point x="75" y="352" type="line"/>
      <point x="517" y="180" type="line"/>
      <point x="525" y="180" type="line"/>
      <point x="525" y="250" type="line"/>
      <point x="173" y="384" type="line"/>
      <point x="173" y="392" type="line"/>
      <point x="525" y="525" type="line"/>
      <point x="525" y="595" type="line"/>
      <point x="517" y="595" type="line"/>
    </contour>
  </outline>
</glyph>
<glyph name="equal" format="2">
  <advance width="600"/>
  <unicode hex="003D"/>
  <outline>
    <contour>
      <point x="525" y="249" type="line"/>
      <point x="525" y="319" type="line"/>
      <point x="75" y="319" type="line"/>
      <point x="75" y="249" type="line"/>
    </contour>
    <contour>
      <point x="525" y="440" type="line"/>
      <point x="525" y="510" type="line"/>
      <point x="75" y="510" type="line"/>
      <point x="75" y="440" type="line"/>
    </contour>
  </outline>
</glyph>
<glyph name="greater" format="2">
  <advance width="600"/>
  <unicode hex="003E"/>
  <outline>
    <contour>
      <point x="525" y="424" type="line"/>
      <point x="83" y="595" type="line"/>
      <point x="75" y="595" type="line"/>
      <point x="75" y="525" type="line"/>
      <point x="427" y="392" type="line"/>
      <point x="427" y="384" type="line"/>
      <point x="75" y="250" type="line"/>
      <point x="75" y="180" type="line"/>
      <point x="83" y="180" type="line"/>
      <point x="525" y="352" type="line"/>
    </contour>
  </outline>
</glyph>
<glyph name="question" format="2">
  <advance width="660"/>
  <unicode hex="003F"/>
  <outline>
    <contour>
      <point x="261" y="0" type="line"/>
      <point x="379" y="0" type="line"/>
      <point x="379" y="104" type="line"/>
      <point x="261" y="104" type="line"/>
    </contour>
    <contour>
      <point x="273" y="213" type="line"/>
      <point x="272" y="255" type="line" smooth="yes"/>
      <point x="270" y="325"/>
      <point x="322" y="387"/>
      <point x="416" y="436" type="curve" smooth="yes"/>
      <point x="495" y="477"/>
      <point x="522" y="516"/>
      <point x="522" y="570" type="curve" smooth="yes"/>
      <point x="522" y="652"/>
      <point x="461" y="698"/>
      <point x="351" y="698" type="curve" smooth="yes"/>
      <point x="232" y="698"/>
      <point x="166" y="637"/>
      <point x="161" y="525" type="curve"/>
      <point x="65" y="525" type="line"/>
      <point x="65" y="533" type="line"/>
      <point x="77" y="687"/>
      <point x="184" y="778"/>
      <point x="351" y="778" type="curve" smooth="yes"/>
      <point x="514" y="778"/>
      <point x="620" y="700"/>
      <point x="620" y="580" type="curve" smooth="yes"/>
      <point x="620" y="492"/>
      <point x="563" y="410"/>
      <point x="453" y="354" type="curve" smooth="yes"/>
      <point x="395" y="325"/>
      <point x="371" y="298"/>
      <point x="371" y="252" type="curve" smooth="yes"/>
      <point x="371" y="213" type="line"/>
    </contour>
  </outline>
</glyph>
<glyph name="at" format="2">
  <advance width="905"/>
  <unicode hex="0040"/>
  <outline>
    <contour>
      <point x="664" y="259" type="curve" smooth="yes"/>
      <point x="628" y="259"/>
      <point x="606" y="285"/>
      <point x="610" y="326" type="curve" smooth="yes"/>
      <point x="633" y="570" type="line"/>
      <point x="545" y="570" type="line"/>
      <point x="540" y="509" type="line"/>
      <point x="532" y="509" type="line"/>
      <point x="530" y="554"/>
      <point x="486" y="585"/>
      <point x="424" y="585" type="curve" smooth="yes"/>
      <point x="328" y="585"/>
      <point x="260" y="510"/>
      <point x="250" y="389" type="curve" smooth="yes"/>
      <point x="239" y="264"/>
      <point x="298" y="189"/>
      <point x="392" y="189" type="curve" smooth="yes"/>
      <point x="454" y="189"/>
      <point x="503" y="220"/>
      <point x="511" y="265" type="curve"/>
      <point x="519" y="265" type="line"/>
      <point x="526" y="220"/>
      <point x="573" y="189"/>
      <point x="643" y="189" type="curve" smooth="yes"/>
      <point x="767" y="189"/>
      <point x="845" y="287"/>
      <point x="845" y="440" type="curve" smooth="yes"/>
      <point x="845" y="655"/>
      <point x="691" y="778"/>
      <point x="462" y="778" type="curve" smooth="yes"/>
      <point x="208" y="778"/>
      <point x="45" y="626"/>
      <point x="45" y="387" type="curve" smooth="yes"/>
      <point x="45" y="151"/>
      <point x="193" y="-15"/>
      <point x="449" y="-15" type="curve" smooth="yes"/>
      <point x="554" y="-15"/>
      <point x="673" y="13"/>
      <point x="735" y="56" type="curve"/>
      <point x="735" y="125" type="line"/>
      <point x="727" y="125" type="line"/>
      <point x="658" y="84"/>
      <point x="551" y="55"/>
      <point x="456" y="55" type="curve" smooth="yes"/>
      <point x="249" y="55"/>
      <point x="133" y="191"/>
      <point x="133" y="388" type="curve" smooth="yes"/>
      <point x="133" y="585"/>
      <point x="259" y="708"/>
      <point x="461" y="708" type="curve" smooth="yes"/>
      <point x="639" y="708"/>
      <point x="757" y="614"/>
      <point x="757" y="428" type="curve" smooth="yes"/>
      <point x="757" y="327"/>
      <point x="722" y="259"/>
    </contour>
    <contour>
      <point x="529" y="387" type="curve" smooth="yes"/>
      <point x="522" y="307"/>
      <point x="481" y="259"/>
      <point x="422" y="259" type="curve" smooth="yes"/>
      <point x="363" y="259"/>
      <point x="331" y="307"/>
      <point x="338" y="387" type="curve" smooth="yes"/>
      <point x="345" y="467"/>
      <point x="386" y="515"/>
      <point x="445" y="515" type="curve" smooth="yes"/>
      <point x="504" y="515"/>
      <point x="536" y="467"/>
    </contour>
  </outline>
</glyph>
<glyph name="A" format="2">
  <advance width="714"/>
  <unicode hex="0041"/>
  <anchor x="357" y="0" name="bottom"/>
  <anchor x="582" y="0" name="ogonek"/>
  <anchor x="357" y="743" name="ring"/>
  <anchor x="357" y="833" name="top"/>
  <outline>
    <contour>
      <point x="30" y="0" type="line"/>
      <point x="132" y="0" type="line"/>
      <point x="353" y="655" type="line"/>
      <point x="361" y="655" type="line"/>
      <point x="582" y="0" type="line"/>
      <point x="684" y="0" type="line"/>
      <point x="684" y="8" type="line"/>
      <point x="409" y="763" type="line"/>
      <point x="305" y="763" type="line"/>
      <point x="30" y="8" type="line"/>
    </contour>
    <contour>
      <point x="163" y="231" type="line"/>
      <point x="539" y="231" type="line"/>
      <point x="539" y="311" type="line"/>
      <point x="163" y="311" type="line"/>
    </contour>
  </outline>
</glyph>
<glyph name="B" format="2">
  <advance width="715"/>
  <unicode hex="0042"/>
  <anchor x="370" y="0" name="bottom"/>
  <anchor x="370" y="833" name="top"/>
  <outline>
    <contour>
      <point x="75" y="0" type="line"/>
      <point x="346" y="0" type="line" smooth="yes"/>
      <point x="562" y="0"/>
      <point x="665" y="67"/>
      <point x="665" y="210" type="curve" smooth="yes"/>
      <point x="665" y="316"/>
      <point x="608" y="374"/>
      <point x="509" y="400" type="curve"/>
      <point x="509" y="408" type="line"/>
      <point x="596" y="431"/>
      <point x="631" y="483"/>
      <point x="631" y="568" type="curve" smooth="yes"/>
      <point x="631" y="699"/>
      <point x="536" y="763"/>
      <point x="346" y="763" type="curve" smooth="yes"/>
      <point x="75" y="763" type="line"/>
    </contour>
    <contour>
      <point x="173" y="442" type="line"/>
      <point x="173" y="683" type="line"/>
      <point x="346" y="683" type="line" smooth="yes"/>
      <point x="482" y="683"/>
      <point x="533" y="652"/>
      <point x="533" y="566" type="curve" smooth="yes"/>
      <point x="533" y="487"/>
      <point x="491" y="442"/>
      <point x="372" y="442" type="curve" smooth="yes"/>
    </contour>
    <contour>
      <point x="173" y="80" type="line"/>
      <point x="173" y="362" type="line"/>
      <point x="372" y="362" type="line" smooth="yes"/>
      <point x="516" y="362"/>
      <point x="567" y="317"/>
      <point x="567" y="221" type="curve" smooth="yes"/>
      <point x="567" y="118"/>
      <point x="508" y="80"/>
      <point x="346" y="80" type="curve" smooth="yes"/>
    </contour>
  </outline>
</glyph>
<glyph name="C" format="2">
  <advance width="775"/>
  <unicode hex="0043"/>
  <anchor x="388" y="0" name="bottom"/>
  <anchor x="388" y="833" name="top"/>
  <outline>
    <contour>
      <point x="724" y="533" type="line"/>
      <point x="713" y="678"/>
      <point x="588" y="778"/>
      <point x="412" y="778" type="curve" smooth="yes"/>
      <point x="191" y="778"/>
      <point x="50" y="620"/>
      <point x="50" y="382" type="curve" smooth="yes"/>
      <point x="50" y="144"/>
      <point x="191" y="-15"/>
      <point x="411" y="-15" type="curve" smooth="yes"/>
      <point x="586" y="-15"/>
      <point x="713" y="86"/>
      <point x="725" y="232" type="curve"/>
      <point x="725" y="240" type="line"/>
      <point x="627" y="240" type="line"/>
      <point x="613" y="137"/>
      <point x="530" y="65"/>
      <point x="411" y="65" type="curve" smooth="yes"/>
      <point x="254" y="65"/>
      <point x="148" y="192"/>
      <point x="148" y="382" type="curve" smooth="yes"/>
      <point x="148" y="571"/>
      <point x="253" y="698"/>
      <point x="410" y="698" type="curve" smooth="yes"/>
      <point x="528" y="698"/>
      <point x="612" y="627"/>
      <point x="626" y="525" type="curve"/>
      <point x="724" y="525" type="line"/>
    </contour>
  </outline>
</glyph>
<glyph name="D" format="2">
  <advance width="755"/>
  <unicode hex="0044"/>
  <anchor x="390" y="0" name="bottom"/>
  <anchor x="124" y="382" name="middle"/>
  <anchor x="311" y="833" name="top"/>
  <outline>
    <contour>
      <point x="75" y="0" type="line"/>
      <point x="173" y="0" type="line"/>
      <point x="173" y="763" type="line"/>
      <point x="75" y="763" type="line"/>
    </contour>
    <contour>
      <point x="110" y="683" type="line"/>
      <point x="311" y="683" type="line"/>
      <point x="311" y="763" type="line"/>
      <point x="110" y="763" type="line"/>
    </contour>
    <contour>
      <point x="110" y="0" type="line"/>
      <point x="311" y="0" type="line"/>
      <point x="311" y="80" type="line"/>
      <point x="110" y="80" type="line"/>
    </contour>
    <contour>
      <point x="311" y="763" type="curve"/>
      <point x="311" y="683" type="line"/>
      <point x="505" y="683"/>
      <point x="607" y="581"/>
      <point x="607" y="389" type="curve" smooth="yes"/>
      <point x="607" y="186"/>
      <point x="506" y="80"/>
      <point x="311" y="80" type="curve"/>
      <point x="311" y="0" type="line"/>
      <point x="554" y="0"/>
      <point x="705" y="147"/>
      <point x="705" y="383" type="curve" smooth="yes"/>
      <point x="705" y="617"/>
      <point x="554" y="763"/>
    </contour>
  </outline>
</glyph>
<glyph name="E" format="2">
  <advance width="685"/>
  <unicode hex="0045"/>
  <anchor x="343" y="0" name="bottom"/>
  <anchor x="512" y="0" name="ogonek"/>
  <anchor x="343" y="833" name="top"/>
  <outline>
    <contour>
      <point x="75" y="0" type="line"/>
      <point x="173" y="0" type="line"/>
      <point x="173" y="763" type="line"/>
      <point x="75" y="763" type="line"/>
    </contour>
    <contour>
      <point x="110" y="683" type="line"/>
      <point x="610" y="683" type="line"/>
      <point x="610" y="763" type="line"/>
      <point x="110" y="763" type="line"/>
    </contour>
    <contour>
      <point x="110" y="0" type="line"/>
      <point x="610" y="0" type="line"/>
      <point x="610" y="80" type="line"/>
      <point x="110" y="80" type="line"/>
    </contour>
    <contour>
      <point x="110" y="355" type="line"/>
      <point x="595" y="355" type="line"/>
      <point x="595" y="432" type="line"/>
      <point x="110" y="432" type="line"/>
    </contour>
  </outline>
</glyph>
<glyph name="F" format="2">
  <advance width="675"/>
  <unicode hex="0046"/>
  <anchor x="343" y="0" name="bottom"/>
  <anchor x="343" y="833" name="top"/>
  <outline>
    <contour>
      <point x="75" y="0" type="line"/>
      <point x="173" y="0" type="line"/>
      <point x="173" y="763" type="line"/>
      <point x="75" y="763" type="line"/>
    </contour>
    <contour>
      <point x="110" y="683" type="line"/>
      <point x="610" y="683" type="line"/>
      <point x="610" y="763" type="line"/>
      <point x="110" y="763" type="line"/>
    </contour>
    <contour>
      <point x="110" y="335" type="line"/>
      <point x="560" y="335" type="line"/>
      <point x="560" y="412" type="line"/>
      <point x="110" y="412" type="line"/>
    </contour>
  </outline>
</glyph>
<glyph name="G" format="2">
  <advance width="820"/>
  <unicode hex="0047"/>
  <anchor x="398" y="0" name="bottom"/>
  <anchor x="398" y="833" name="top"/>
  <outline>
    <contour>
      <point x="745" y="533" type="line"/>
      <point x="734" y="679"/>
      <point x="600" y="778"/>
      <point x="422" y="778" type="curve" smooth="yes"/>
      <point x="195" y="778"/>
      <point x="50" y="616"/>
      <point x="50" y="378" type="curve" smooth="yes"/>
      <point x="50" y="142"/>
      <point x="189" y="-15"/>
      <point x="400" y="-15" type="curve" smooth="yes"/>
      <point x="531" y="-15"/>
      <point x="633" y="49"/>
      <point x="647" y="140" type="curve"/>
      <point x="655" y="140" type="line"/>
      <point x="655" y="0" type="line"/>
      <point x="745" y="0" type="line"/>
      <point x="745" y="412" type="line"/>
      <point x="420" y="412" type="line"/>
      <point x="420" y="335" type="line"/>
      <point x="655" y="335" type="line"/>
      <point x="655" y="170"/>
      <point x="559" y="65"/>
      <point x="407" y="65" type="curve" smooth="yes"/>
      <point x="246" y="65"/>
      <point x="148" y="183"/>
      <point x="148" y="377" type="curve" smooth="yes"/>
      <point x="148" y="574"/>
      <point x="250" y="698"/>
      <point x="416" y="698" type="curve" smooth="yes"/>
      <point x="545" y="698"/>
      <point x="633" y="630"/>
      <point x="647" y="525" type="curve"/>
      <point x="745" y="525" type="line"/>
    </contour>
  </outline>
</glyph>
<glyph name="H" format="2">
  <advance width="745"/>
  <unicode hex="0048"/>
  <anchor x="373" y="0" name="bottom"/>
  <anchor x="373" y="833" name="top"/>
  <outline>
    <contour>
      <point x="75" y="0" type="line"/>
      <point x="173" y="0" type="line"/>
      <point x="173" y="763" type="line"/>
      <point x="75" y="763" type="line"/>
    </contour>
    <contour>
      <point x="572" y="0" type="line"/>
      <point x="670" y="0" type="line"/>
      <point x="670" y="763" type="line"/>
      <point x="572" y="763" type="line"/>
    </contour>
    <contour>
      <point x="127" y="352" type="line"/>
      <point x="613" y="352" type="line"/>
      <point x="613" y="432" type="line"/>
      <point x="127" y="432" type="line"/>
    </contour>
  </outline>
</glyph>
<glyph name="I" format="2">
  <advance width="248"/>
  <unicode hex="0049"/>
  <anchor x="124" y="0" name="bottom"/>
  <anchor x="75" y="0" name="ogonek"/>
  <anchor x="124" y="833" name="top"/>
  <outline>
    <contour>
      <point x="75" y="0" type="line"/>
      <point x="173" y="0" type="line"/>
      <point x="173" y="763" type="line"/>
      <point x="75" y="763" type="line"/>
    </contour>
  </outline>
</glyph>
<glyph name="J" format="2">
  <advance width="670"/>
  <unicode hex="004A"/>
  <anchor x="335" y="-2" name="bottom"/>
  <anchor x="551" y="833" name="top"/>
  <outline>
    <contour>
      <point x="168" y="240" type="line"/>
      <point x="168" y="133"/>
      <point x="233" y="65"/>
      <point x="335" y="65" type="curve" smooth="yes"/>
      <point x="438" y="65"/>
      <point x="502" y="133"/>
      <point x="502" y="240" type="curve" smooth="yes"/>
      <point x="502" y="763" type="line"/>
      <point x="600" y="763" type="line"/>
      <point x="600" y="240" type="line" smooth="yes"/>
      <point x="600" y="83"/>
      <point x="498" y="-15"/>
      <point x="335" y="-15" type="curve" smooth="yes"/>
      <point x="172" y="-15"/>
      <point x="70" y="80"/>
      <point x="70" y="234" type="curve"/>
      <point x="70" y="240" type="line"/>
    </contour>
  </outline>
</glyph>
<glyph name="K" format="2">
  <advance width="713"/>
  <unicode hex="004B"/>
  <anchor x="379" y="0" name="bottom"/>
  <anchor x="379" y="833" name="top"/>
  <outline>
    <contour>
      <point x="75" y="0" type="line"/>
      <point x="173" y="0" type="line"/>
      <point x="173" y="265" type="line"/>
      <point x="296" y="386" type="line"/>
      <point x="567" y="0" type="line"/>
      <point x="683" y="0" type="line"/>
      <point x="683" y="8" type="line"/>
      <point x="359" y="451" type="line"/>
      <point x="668" y="755" type="line"/>
      <point x="668" y="763" type="line"/>
      <point x="552" y="763" type="line"/>
      <point x="181" y="391" type="line"/>
      <point x="173" y="391" type="line"/>
      <point x="173" y="763" type="line"/>
      <point x="75" y="763" type="line"/>
    </contour>
  </outline>
</glyph>
<glyph name="L" format="2">
  <advance width="675"/>
  <unicode hex="004C"/>
  <anchor x="343" y="0" name="bottom"/>
  <anchor x="173" y="525" name="middle"/>
  <anchor x="124" y="833" name="top"/>
  <outline>
    <contour>
      <point x="75" y="0" type="line"/>
      <point x="173" y="0" type="line"/>
      <point x="173" y="763" type="line"/>
      <point x="75" y="763" type="line"/>
    </contour>
    <contour>
      <point x="110" y="0" type="line"/>
      <point x="610" y="0" type="line"/>
      <point x="610" y="80" type="line"/>
      <point x="110" y="80" type="line"/>
    </contour>
  </outline>
</glyph>
<glyph name="M" format="2">
  <advance width="895"/>
  <unicode hex="004D"/>
  <anchor x="448" y="0" name="bottom"/>
  <anchor x="448" y="833" name="top"/>
  <outline>
    <contour>
      <point x="85" y="763" type="line"/>
      <point x="85" y="0" type="line"/>
      <point x="183" y="0" type="line"/>
      <point x="183" y="663" type="line"/>
      <point x="191" y="663" type="line"/>
      <point x="383" y="0" type="line"/>
      <point x="511" y="0" type="line"/>
      <point x="702" y="663" type="line"/>
      <point x="710" y="663" type="line"/>
      <point x="710" y="0" type="line"/>
      <point x="810" y="0" type="line"/>
      <point x="810" y="763" type="line"/>
      <point x="646" y="763" type="line"/>
      <point x="452" y="100" type="line"/>
      <point x="444" y="100" type="line"/>
      <point x="249" y="763" type="line"/>
    </contour>
  </outline>
</glyph>
<glyph name="N" format="2">
  <advance width="745"/>
  <unicode hex="004E"/>
  <anchor x="373" y="0" name="bottom"/>
  <anchor x="373" y="833" name="top"/>
  <outline>
    <contour>
      <point x="75" y="0" type="line"/>
      <point x="173" y="0" type="line"/>
      <point x="173" y="607" type="line"/>
      <point x="181" y="607" type="line"/>
      <point x="568" y="0" type="line"/>
      <point x="670" y="0" type="line"/>
      <point x="670" y="763" type="line"/>
      <point x="572" y="763" type="line"/>
      <point x="572" y="156" type="line"/>
      <point x="564" y="156" type="line"/>
      <point x="177" y="763" type="line"/>
      <point x="75" y="763" type="line"/>
    </contour>
  </outline>
</glyph>
<glyph name="O" format="2">
  <advance width="820"/>
  <unicode hex="004F"/>
  <anchor x="410" y="0" name="bottom"/>
  <anchor x="596" y="0" name="ogonek"/>
  <anchor x="410" y="833" name="top"/>
  <outline>
    <contour>
      <point x="50" y="381" type="curve" smooth="yes"/>
      <point x="50" y="139"/>
      <point x="190" y="-15"/>
      <point x="411" y="-15" type="curve" smooth="yes"/>
      <point x="631" y="-15"/>
      <point x="770" y="139"/>
      <point x="770" y="381" type="curve" smooth="yes"/>
      <point x="770" y="623"/>
      <point x="631" y="778"/>
      <point x="411" y="778" type="curve" smooth="yes"/>
      <point x="191" y="778"/>
      <point x="50" y="624"/>
    </contour>
    <contour>
      <point x="148" y="380" type="curve" smooth="yes"/>
      <point x="148" y="574"/>
      <point x="250" y="698"/>
      <point x="411" y="698" type="curve" smooth="yes"/>
      <point x="571" y="698"/>
      <point x="672" y="574"/>
      <point x="672" y="380" type="curve" smooth="yes"/>
      <point x="672" y="188"/>
      <point x="571" y="65"/>
      <point x="411" y="65" type="curve" smooth="yes"/>
      <point x="250" y="65"/>
      <point x="148" y="188"/>
    </contour>
  </outline>
</glyph>
<glyph name="P" format="2">
  <advance width="685"/>
  <unicode hex="0050"/>
  <anchor x="124" y="0" name="bottom"/>
  <anchor x="360" y="833" name="top"/>
  <outline>
    <contour>
      <point x="75" y="0" type="line"/>
      <point x="173" y="0" type="line"/>
      <point x="173" y="763" type="line"/>
      <point x="75" y="763" type="line"/>
    </contour>
    <contour>
      <point x="110" y="683" type="line"/>
      <point x="386" y="683" type="line"/>
      <point x="386" y="763" type="line"/>
      <point x="110" y="763" type="line"/>
    </contour>
    <contour>
      <point x="110" y="327" type="line"/>
      <point x="386" y="327" type="line"/>
      <point x="386" y="407" type="line"/>
      <point x="110" y="407" type="line"/>
    </contour>
    <contour>
      <point x="386" y="763" type="curve"/>
      <point x="386" y="683" type="line"/>
      <point x="496" y="683"/>
      <point x="547" y="637"/>
      <point x="547" y="549" type="curve" smooth="yes"/>
      <point x="547" y="455"/>
      <point x="491" y="407"/>
      <point x="386" y="407" type="curve"/>
      <point x="386" y="327" type="line"/>
      <point x="548" y="327"/>
      <point x="645" y="410"/>
      <point x="645" y="546" type="curve" smooth="yes"/>
      <point x="645" y="682"/>
      <point x="548" y="763"/>
    </contour>
  </outline>
</glyph>
<glyph name="Q" format="2">
  <advance width="820"/>
  <unicode hex="0051"/>
  <anchor x="410" y="833" name="top"/>
  <outline>
    <contour>
      <point x="50" y="381" type="curve" smooth="yes"/>
      <point x="50" y="139"/>
      <point x="200" y="-15"/>
      <point x="439" y="-15" type="curve" smooth="yes"/>
      <point x="521" y="-15"/>
      <point x="556" y="-36"/>
      <point x="556" y="-84" type="curve" smooth="yes"/>
      <point x="556" y="-133"/>
      <point x="520" y="-157"/>
      <point x="455" y="-157" type="curve" smooth="yes"/>
      <point x="329" y="-157" type="line"/>
      <point x="329" y="-237" type="line"/>
      <point x="473" y="-237" type="line" smooth="yes"/>
      <point x="587" y="-237"/>
      <point x="656" y="-189"/>
      <point x="656" y="-100" type="curve" smooth="yes"/>
      <point x="656" y="-40"/>
      <point x="624" y="14"/>
      <point x="545" y="31" type="curve"/>
      <point x="545" y="39" type="line"/>
      <point x="683" y="67"/>
      <point x="770" y="200"/>
      <point x="770" y="384" type="curve" smooth="yes"/>
      <point x="770" y="619"/>
      <point x="628" y="778"/>
      <point x="411" y="778" type="curve" smooth="yes"/>
      <point x="193" y="778"/>
      <point x="50" y="619"/>
    </contour>
    <contour>
      <point x="148" y="380" type="curve" smooth="yes"/>
      <point x="148" y="571"/>
      <point x="252" y="698"/>
      <point x="411" y="698" type="curve" smooth="yes"/>
      <point x="569" y="698"/>
      <point x="672" y="571"/>
      <point x="672" y="381" type="curve" smooth="yes"/>
      <point x="672" y="191"/>
      <point x="569" y="65"/>
      <point x="411" y="65" type="curve" smooth="yes"/>
      <point x="252" y="65"/>
      <point x="148" y="191"/>
    </contour>
  </outline>
</glyph>
<glyph name="R" format="2">
  <advance width="730"/>
  <unicode hex="0052"/>
  <anchor x="385" y="0" name="bottom"/>
  <anchor x="320" y="833" name="top"/>
  <outline>
    <contour>
      <point x="75" y="0" type="line"/>
      <point x="173" y="0" type="line"/>
      <point x="173" y="332" type="line"/>
      <point x="374" y="332" type="line" smooth="yes"/>
      <point x="518" y="332"/>
      <point x="535" y="285"/>
      <point x="535" y="192" type="curve" smooth="yes"/>
      <point x="535" y="103" type="line" smooth="yes"/>
      <point x="535" y="41"/>
      <point x="576" y="0"/>
      <point x="638" y="0" type="curve" smooth="yes"/>
      <point x="695" y="0" type="line"/>
      <point x="695" y="70" type="line"/>
      <point x="670" y="70" type="line" smooth="yes"/>
      <point x="645" y="70"/>
      <point x="633" y="82"/>
      <point x="633" y="107" type="curve" smooth="yes"/>
      <point x="633" y="186" type="line" smooth="yes"/>
      <point x="633" y="288"/>
      <point x="591" y="344"/>
      <point x="503" y="368" type="curve"/>
      <point x="503" y="376" type="line"/>
      <point x="589" y="401"/>
      <point x="633" y="456"/>
      <point x="633" y="549" type="curve" smooth="yes"/>
      <point x="633" y="685"/>
      <point x="539" y="763"/>
      <point x="376" y="763" type="curve" smooth="yes"/>
      <point x="75" y="763" type="line"/>
    </contour>
    <contour>
      <point x="173" y="412" type="line"/>
      <point x="173" y="683" type="line"/>
      <point x="376" y="683" type="line" smooth="yes"/>
      <point x="489" y="683"/>
      <point x="535" y="643"/>
      <point x="535" y="549" type="curve" smooth="yes"/>
      <point x="535" y="453"/>
      <point x="487" y="412"/>
      <point x="374" y="412" type="curve" smooth="yes"/>
    </contour>
  </outline>
</glyph>
<glyph name="S" format="2">
  <advance width="695"/>
  <unicode hex="0053"/>
  <anchor x="345" y="0" name="bottom"/>
  <anchor x="345" y="833" name="top"/>
  <outline>
    <contour>
      <point x="655" y="215" type="curve" smooth="yes"/>
      <point x="655" y="348"/>
      <point x="548" y="426"/>
      <point x="336" y="440" type="curve" smooth="yes"/>
      <point x="200" y="449"/>
      <point x="147" y="482"/>
      <point x="147" y="556" type="curve" smooth="yes"/>
      <point x="147" y="642"/>
      <point x="219" y="696"/>
      <point x="336" y="696" type="curve" smooth="yes"/>
      <point x="461" y="696"/>
      <point x="541" y="636"/>
      <point x="556" y="525" type="curve"/>
      <point x="654" y="525" type="line"/>
      <point x="654" y="533" type="line"/>
      <point x="643" y="681"/>
      <point x="517" y="776"/>
      <point x="335" y="776" type="curve" smooth="yes"/>
      <point x="163" y="776"/>
      <point x="50" y="689"/>
      <point x="50" y="553" type="curve" smooth="yes"/>
      <point x="50" y="424"/>
      <point x="152" y="352"/>
      <point x="351" y="342" type="curve" smooth="yes"/>
      <point x="496" y="335"/>
      <point x="558" y="296"/>
      <point x="558" y="212" type="curve" smooth="yes"/>
      <point x="558" y="120"/>
      <point x="483" y="63"/>
      <point x="364" y="63" type="curve" smooth="yes"/>
      <point x="236" y="63"/>
      <point x="150" y="129"/>
      <point x="133" y="238" type="curve"/>
      <point x="35" y="238" type="line"/>
      <point x="35" y="230" type="line"/>
      <point x="49" y="81"/>
      <point x="179" y="-17"/>
      <point x="361" y="-17" type="curve" smooth="yes"/>
      <point x="539" y="-17"/>
      <point x="655" y="76"/>
    </contour>
  </outline>
</glyph>
<glyph name="T" format="2">
  <advance width="620"/>
  <unicode hex="0054"/>
  <anchor x="310" y="0" name="bottom"/>
  <anchor x="310" y="382" name="middle"/>
  <anchor x="310" y="833" name="top"/>
  <outline>
    <contour>
      <point x="261" y="0" type="line"/>
      <point x="359" y="0" type="line"/>
      <point x="359" y="763" type="line"/>
      <point x="261" y="763" type="line"/>
    </contour>
    <contour>
      <point x="20" y="683" type="line"/>
      <point x="600" y="683" type="line"/>
      <point x="600" y="763" type="line"/>
      <point x="20" y="763" type="line"/>
    </contour>
  </outline>
</glyph>
<glyph name="U" format="2">
  <advance width="740"/>
  <unicode hex="0055"/>
  <anchor x="370" y="0" name="bottom"/>
  <anchor x="547" y="0" name="ogonek"/>
  <anchor x="370" y="823" name="ring"/>
  <anchor x="370" y="833" name="top"/>
  <outline>
    <contour>
      <point x="670" y="240" type="line" smooth="yes"/>
      <point x="670" y="83"/>
      <point x="555" y="-15"/>
      <point x="371" y="-15" type="curve" smooth="yes"/>
      <point x="185" y="-15"/>
      <point x="70" y="82"/>
      <point x="70" y="240" type="curve" smooth="yes"/>
      <point x="70" y="763" type="line"/>
      <point x="168" y="763" type="line"/>
      <point x="168" y="240" type="line" smooth="yes"/>
      <point x="168" y="133"/>
      <point x="246" y="65"/>
      <point x="371" y="65" type="curve" smooth="yes"/>
      <point x="495" y="65"/>
      <point x="572" y="133"/>
      <point x="572" y="240" type="curve" smooth="yes"/>
      <point x="572" y="763" type="line"/>
      <point x="670" y="763" type="line"/>
    </contour>
  </outline>
</glyph>
<glyph name="V" format="2">
  <advance width="714"/>
  <unicode hex="0056"/>
  <anchor x="357" y="0" name="bottom"/>
  <anchor x="357" y="659" name="top"/>
  <outline>
    <contour>
      <point x="30" y="763" type="line"/>
      <point x="30" y="757" type="line"/>
      <point x="306" y="0" type="line"/>
      <point x="408" y="0" type="line"/>
      <point x="684" y="757" type="line"/>
      <point x="684" y="763" type="line"/>
      <point x="582" y="763" type="line"/>
      <point x="361" y="108" type="line"/>
      <point x="353" y="108" type="line"/>
      <point x="132" y="763" type="line"/>
    </contour>
  </outline>
</glyph>
<glyph name="W" format="2">
  <advance width="915"/>
  <unicode hex="0057"/>
  <anchor x="458" y="0" name="bottom"/>
  <anchor x="458" y="833" name="top"/>
  <outline>
    <contour>
      <point x="188" y="0" type="line"/>
      <point x="325" y="0" type="line"/>
      <point x="453" y="655" type="line"/>
      <point x="463" y="655" type="line"/>
      <point x="590" y="0" type="line"/>
      <point x="727" y="0" type="line"/>
      <point x="895" y="757" type="line"/>
      <point x="895" y="763" type="line"/>
      <point x="795" y="763" type="line"/>
      <point x="660" y="108" type="line"/>
      <point x="650" y="108" type="line"/>
      <point x="524" y="763" type="line"/>
      <point x="390" y="763" type="line"/>
      <point x="265" y="108" type="line"/>
      <point x="255" y="108" type="line"/>
      <point x="120" y="763" type="line"/>
      <point x="20" y="763" type="line"/>
      <point x="21" y="757" type="line"/>
    </contour>
  </outline>
</glyph>
<glyph name="X" format="2">
  <advance width="714"/>
  <unicode hex="0058"/>
  <anchor x="357" y="0" name="bottom"/>
  <anchor x="357" y="833" name="top"/>
  <outline>
    <contour>
      <point x="30" y="763" type="line"/>
      <point x="30" y="757" type="line"/>
      <point x="295" y="382" type="line"/>
      <point x="419" y="382" type="line"/>
      <point x="684" y="757" type="line"/>
      <point x="684" y="763" type="line"/>
      <point x="576" y="763" type="line"/>
      <point x="361" y="457" type="line"/>
      <point x="353" y="457" type="line"/>
      <point x="138" y="763" type="line"/>
    </contour>
    <contour>
      <point x="30" y="0" type="line"/>
      <point x="138" y="0" type="line"/>
      <point x="353" y="306" type="line"/>
      <point x="361" y="306" type="line"/>
      <point x="576" y="0" type="line"/>
      <point x="684" y="0" type="line"/>
      <point x="684" y="6" type="line"/>
      <point x="419" y="382" type="line"/>
      <point x="296" y="382" type="line"/>
      <point x="30" y="6" type="line"/>
    </contour>
  </outline>
</glyph>
<glyph name="Y" format="2">
  <advance width="714"/>
  <unicode hex="0059"/>
  <anchor x="357" y="0" name="bottom"/>
  <anchor x="357" y="833" name="top"/>
  <outline>
    <contour>
      <point x="30" y="763" type="line"/>
      <point x="30" y="755" type="line"/>
      <point x="308" y="301" type="line"/>
      <point x="308" y="0" type="line"/>
      <point x="406" y="0" type="line"/>
      <point x="406" y="301" type="line"/>
      <point x="684" y="755" type="line"/>
      <point x="684" y="763" type="line"/>
      <point x="580" y="763" type="line"/>
      <point x="361" y="380" type="line"/>
      <point x="353" y="380" type="line"/>
      <point x="134" y="763" type="line"/>
    </contour>
  </outline>
</glyph>
<glyph name="Z" format="2">
  <advance width="755"/>
  <unicode hex="005A"/>
  <anchor x="378" y="0" name="bottom"/>
  <anchor x="378" y="833" name="top"/>
  <outline>
    <contour>
      <point x="75" y="84" type="line"/>
      <point x="75" y="0" type="line"/>
      <point x="680" y="0" type="line"/>
      <point x="680" y="80" type="line"/>
      <point x="190" y="80" type="line"/>
      <point x="190" y="88" type="line"/>
      <point x="680" y="679" type="line"/>
      <point x="680" y="763" type="line"/>
      <point x="75" y="763" type="line"/>
      <point x="75" y="683" type="line"/>
      <point x="565" y="683" type="line"/>
      <point x="565" y="675" type="line"/>
    </contour>
  </outline>
</glyph>
<glyph name="bracketleft" format="2">
  <advance width="385"/>
  <unicode hex="005B"/>
  <outline>
    <contour>
      <point x="75" y="833" type="line"/>
      <point x="75" y="-167" type="line"/>
      <point x="163" y="-167" type="line"/>
      <point x="163" y="833" type="line"/>
    </contour>
    <contour>
      <point x="163" y="-167" type="line"/>
      <point x="310" y="-167" type="line"/>
      <point x="310" y="-97" type="line"/>
      <point x="163" y="-97" type="line"/>
    </contour>
    <contour>
      <point x="163" y="763" type="line"/>
      <point x="310" y="763" type="line"/>
      <point x="310" y="833" type="line"/>
      <point x="163" y="833" type="line"/>
    </contour>
  </outline>
</glyph>
<glyph name="backslash" format="2">
  <advance width="423"/>
  <unicode hex="005C"/>
  <outline>
    <contour>
      <point x="393" y="0" type="line"/>
      <point x="393" y="8" type="line"/>
      <point x="118" y="763" type="line"/>
      <point x="30" y="763" type="line"/>
      <point x="30" y="755" type="line"/>
      <point x="305" y="0" type="line"/>
    </contour>
  </outline>
</glyph>
<glyph name="bracketright" format="2">
  <advance width="385"/>
  <unicode hex="005D"/>
  <outline>
    <contour>
      <point x="310" y="833" type="line"/>
      <point x="222" y="833" type="line"/>
      <point x="222" y="-167" type="line"/>
      <point x="310" y="-167" type="line"/>
    </contour>
    <contour>
      <point x="222" y="-167" type="line"/>
      <point x="222" y="-97" type="line"/>
      <point x="75" y="-97" type="line"/>
      <point x="75" y="-167" type="line"/>
    </contour>
    <contour>
      <point x="222" y="763" type="line"/>
      <point x="222" y="833" type="line"/>
      <point x="75" y="833" type="line"/>
      <point x="75" y="763" type="line"/>
    </contour>
  </outline>
</glyph>
<glyph name="asciicircum" format="2">
  <advance width="553"/>
  <unicode hex="005E"/>
  <outline>
    <contour>
      <point x="319" y="763" type="line"/>
      <point x="235" y="763" type="line"/>
      <point x="75" y="533" type="line"/>
      <point x="75" y="525" type="line"/>
      <point x="159" y="525" type="line"/>
      <point x="275" y="693" type="line"/>
      <point x="280" y="693" type="line"/>
      <point x="394" y="525" type="line"/>
      <point x="478" y="525" type="line"/>
      <point x="478" y="533" type="line"/>
    </contour>
  </outline>
</glyph>
<glyph name="underscore" format="2">
  <advance width="480"/>
  <unicode hex="005F"/>
  <outline>
    <contour>
      <point x="15" y="-85" type="line"/>
      <point x="465" y="-85" type="line"/>
      <point x="465" y="-15" type="line"/>
      <point x="15" y="-15" type="line"/>
    </contour>
  </outline>
</glyph>
<glyph name="grave" format="2">
  <advance width="289"/>
  <unicode hex="0060"/>
  <anchor x="155" y="595" name="_top"/>
  <outline>
    <contour>
      <point x="65" y="755" type="line"/>
      <point x="159" y="625" type="line"/>
      <point x="229" y="625" type="line"/>
      <point x="229" y="633" type="line" smooth="yes"/>
      <point x="163" y="763" type="line"/>
      <point x="65" y="763" type="line"/>
    </contour>
  </outline>
</glyph>
<glyph name="a" format="2">
  <advance width="610"/>
  <unicode hex="0061"/>
  <anchor x="315" y="595" name="top"/>
  <outline>
    <contour>
      <point x="65" y="361" type="curve"/>
      <point x="65" y="353" type="line"/>
      <point x="153" y="353" type="line"/>
      <point x="168" y="434"/>
      <point x="216" y="470"/>
      <point x="306" y="470" type="curve" smooth="yes"/>
      <point x="383" y="470"/>
      <point x="427" y="442"/>
      <point x="427" y="393" type="curve" smooth="yes"/>
      <point x="427" y="340"/>
      <point x="377" y="313"/>
      <point x="279" y="313" type="curve" smooth="yes"/>
      <point x="134" y="313"/>
      <point x="50" y="254"/>
      <point x="50" y="148" type="curve" smooth="yes"/>
      <point x="50" y="48"/>
      <point x="125" y="-15"/>
      <point x="248" y="-15" type="curve" smooth="yes"/>
      <point x="344" y="-15"/>
      <point x="422" y="23"/>
      <point x="437" y="85" type="curve"/>
      <point x="445" y="85" type="line"/>
      <point x="452" y="21"/>
      <point x="485" y="0"/>
      <point x="557" y="0" type="curve" smooth="yes"/>
      <point x="582" y="0"/>
      <point x="556" y="0"/>
      <point x="580" y="0" type="curve"/>
      <point x="580" y="70" type="line"/>
      <point x="560" y="70" type="line" smooth="yes"/>
      <point x="526" y="70"/>
      <point x="515" y="82"/>
      <point x="515" y="120" type="curve" smooth="yes"/>
      <point x="515" y="380" type="line" smooth="yes"/>
      <point x="515" y="477"/>
      <point x="431" y="540"/>
      <point x="307" y="540" type="curve" smooth="yes"/>
      <point x="174" y="540"/>
      <point x="80" y="468"/>
    </contour>
    <contour>
      <point x="419" y="292" type="curve"/>
      <point x="427" y="292" type="line"/>
      <point x="427" y="237" type="line" smooth="yes"/>
      <point x="427" y="124"/>
      <point x="362" y="55"/>
      <point x="256" y="55" type="curve" smooth="yes"/>
      <point x="182" y="55"/>
      <point x="138" y="88"/>
      <point x="138" y="146" type="curve" smooth="yes"/>
      <point x="138" y="210"/>
      <point x="190" y="240"/>
      <point x="283" y="240" type="curve" smooth="yes"/>
      <point x="359" y="240"/>
      <point x="412" y="260"/>
    </contour>
  </outline>
</glyph>
<glyph name="b" format="2">
  <advance width="625"/>
  <unicode hex="0062"/>
  <anchor x="119" y="833" name="top"/>
  <outline>
    <contour>
      <point x="75" y="763" type="line"/>
      <point x="163" y="763" type="line"/>
      <point x="163" y="444" type="line"/>
      <point x="171" y="444" type="line"/>
      <point x="191" y="503"/>
      <point x="256" y="540"/>
      <point x="338" y="540" type="curve" smooth="yes"/>
      <point x="477" y="540"/>
      <point x="575" y="435"/>
      <point x="575" y="263" type="curve" smooth="yes"/>
      <point x="575" y="90"/>
      <point x="486" y="-15"/>
      <point x="347" y="-15" type="curve" smooth="yes"/>
      <point x="262" y="-15"/>
      <point x="193" y="23"/>
      <point x="171" y="81" type="curve"/>
      <point x="163" y="81" type="line"/>
      <point x="163" y="0" type="line"/>
      <point x="75" y="0" type="line"/>
    </contour>
    <contour>
      <point x="163" y="260" type="curve" smooth="yes"/>
      <point x="163" y="133"/>
      <point x="226" y="55"/>
      <point x="326" y="55" type="curve" smooth="yes"/>
      <point x="425" y="55"/>
      <point x="487" y="133"/>
      <point x="487" y="260" type="curve" smooth="yes"/>
      <point x="487" y="392"/>
      <point x="425" y="470"/>
      <point x="326" y="470" type="curve" smooth="yes"/>
      <point x="226" y="470"/>
      <point x="163" y="392"/>
    </contour>
  </outline>
</glyph>
<glyph name="c" format="2">
  <advance width="600"/>
  <unicode hex="0063"/>
  <anchor x="300" y="0" name="bottom"/>
  <anchor x="300" y="595" name="top"/>
  <outline>
    <contour>
      <point x="549" y="361" type="line"/>
      <point x="540" y="467"/>
      <point x="447" y="540"/>
      <point x="317" y="540" type="curve" smooth="yes"/>
      <point x="156" y="540"/>
      <point x="50" y="429"/>
      <point x="50" y="262" type="curve" smooth="yes"/>
      <point x="50" y="97"/>
      <point x="156" y="-15"/>
      <point x="316" y="-15" type="curve" smooth="yes"/>
      <point x="446" y="-15"/>
      <point x="540" y="59"/>
      <point x="550" y="166" type="curve"/>
      <point x="550" y="174" type="line"/>
      <point x="462" y="174" type="line"/>
      <point x="451" y="102"/>
      <point x="396" y="55"/>
      <point x="317" y="55" type="curve" smooth="yes"/>
      <point x="213" y="55"/>
      <point x="138" y="139"/>
      <point x="138" y="264" type="curve" smooth="yes"/>
      <point x="138" y="387"/>
      <point x="211" y="470"/>
      <point x="315" y="470" type="curve" smooth="yes"/>
      <point x="395" y="470"/>
      <point x="450" y="423"/>
      <point x="461" y="353" type="curve"/>
      <point x="549" y="353" type="line"/>
    </contour>
  </outline>
</glyph>
<glyph name="d" format="2">
  <advance width="625"/>
  <unicode hex="0064"/>
  <anchor x="300" y="0" name="bottom"/>
  <anchor x="462" y="630" name="middle"/>
  <anchor x="506" y="833" name="top"/>
  <outline>
    <contour>
      <point x="550" y="763" type="line"/>
      <point x="462" y="763" type="line"/>
      <point x="462" y="444" type="line"/>
      <point x="454" y="444" type="line"/>
      <point x="434" y="503"/>
      <point x="369" y="540"/>
      <point x="287" y="540" type="curve" smooth="yes"/>
      <point x="148" y="540"/>
      <point x="50" y="435"/>
      <point x="50" y="263" type="curve" smooth="yes"/>
      <point x="50" y="90"/>
      <point x="139" y="-15"/>
      <point x="278" y="-15" type="curve" smooth="yes"/>
      <point x="363" y="-15"/>
      <point x="432" y="23"/>
      <point x="454" y="81" type="curve"/>
      <point x="462" y="81" type="line"/>
      <point x="462" y="0" type="line"/>
      <point x="550" y="0" type="line"/>
    </contour>
    <contour>
      <point x="462" y="260" type="curve" smooth="yes"/>
      <point x="462" y="133"/>
      <point x="399" y="55"/>
      <point x="299" y="55" type="curve" smooth="yes"/>
      <point x="200" y="55"/>
      <point x="138" y="132"/>
      <point x="138" y="259" type="curve" smooth="yes"/>
      <point x="138" y="393"/>
      <point x="200" y="470"/>
      <point x="299" y="470" type="curve" smooth="yes"/>
      <point x="399" y="470"/>
      <point x="462" y="392"/>
    </contour>
  </outline>
</glyph>
<glyph name="e" format="2">
  <advance width="600"/>
  <unicode hex="0065"/>
  <anchor x="300" y="0" name="bottom"/>
  <anchor x="445" y="0" name="ogonek"/>
  <anchor x="300" y="595" name="top"/>
  <outline>
    <contour>
      <point x="550" y="315" type="line" smooth="yes"/>
      <point x="550" y="451"/>
      <point x="454" y="540"/>
      <point x="310" y="540" type="curve" smooth="yes"/>
      <point x="150" y="540"/>
      <point x="50" y="431"/>
      <point x="50" y="260" type="curve" smooth="yes"/>
      <point x="50" y="94"/>
      <point x="145" y="-15"/>
      <point x="307" y="-15" type="curve" smooth="yes"/>
      <point x="436" y="-15"/>
      <point x="534" y="55"/>
      <point x="548" y="166" type="curve"/>
      <point x="548" y="174" type="line"/>
      <point x="460" y="174" type="line"/>
      <point x="446" y="99"/>
      <point x="390" y="55"/>
      <point x="308" y="55" type="curve" smooth="yes"/>
      <point x="201" y="55"/>
      <point x="142" y="131"/>
      <point x="137" y="252" type="curve"/>
      <point x="550" y="252" type="line"/>
    </contour>
    <contour>
      <point x="141" y="319" type="line"/>
      <point x="153" y="410"/>
      <point x="212" y="470"/>
      <point x="308" y="470" type="curve" smooth="yes"/>
      <point x="403" y="470"/>
      <point x="465" y="410"/>
      <point x="465" y="319" type="curve"/>
    </contour>
  </outline>
</glyph>
<glyph name="f" format="2">
  <advance width="420"/>
  <unicode hex="0066"/>
  <anchor x="162" y="0" name="bottom"/>
  <anchor x="220" y="833" name="top"/>
  <outline>
    <contour>
      <point x="118" y="615" type="curve" smooth="yes"/>
      <point x="118" y="591" type="line" smooth="yes"/>
      <point x="118" y="549"/>
      <point x="95" y="525"/>
      <point x="53" y="525" type="curve" smooth="yes"/>
      <point x="30" y="525" type="line"/>
      <point x="30" y="458" type="line"/>
      <point x="118" y="458" type="line"/>
      <point x="118" y="421"/>
      <point x="118" y="153"/>
      <point x="118" y="0" type="curve"/>
      <point x="206" y="0" type="line"/>
      <point x="206" y="142"/>
      <point x="206" y="357"/>
      <point x="206" y="458" type="curve"/>
      <point x="410" y="458" type="line"/>
      <point x="410" y="525" type="line"/>
      <point x="195" y="525" type="line"/>
      <point x="195" y="533" type="line"/>
      <point x="202" y="536"/>
      <point x="206" y="549"/>
      <point x="206" y="575" type="curve" smooth="yes"/>
      <point x="206" y="630" type="line" smooth="yes"/>
      <point x="206" y="671"/>
      <point x="229" y="693"/>
      <point x="270" y="693" type="curve" smooth="yes"/>
      <point x="406" y="693" type="line"/>
      <point x="406" y="763" type="line"/>
      <point x="277" y="763" type="line" smooth="yes"/>
      <point x="165" y="763"/>
      <point x="118" y="720"/>
    </contour>
  </outline>
</glyph>
<glyph name="h" format="2">
  <advance width="605"/>
  <unicode hex="0068"/>
  <anchor x="163" y="630" name="middle"/>
  <anchor x="119" y="833" name="top"/>
  <outline>
    <contour>
      <point x="75" y="0" type="line"/>
      <point x="163" y="0" type="line"/>
      <point x="163" y="268" type="line" smooth="yes"/>
      <point x="163" y="395"/>
      <point x="218" y="470"/>
      <point x="315" y="470" type="curve" smooth="yes"/>
      <point x="403" y="470"/>
      <point x="452" y="415"/>
      <point x="452" y="321" type="curve" smooth="yes"/>
      <point x="452" y="0" type="line"/>
      <point x="540" y="0" type="line"/>
      <point x="540" y="344" type="line" smooth="yes"/>
      <point x="540" y="463"/>
      <point x="467" y="540"/>
      <point x="346" y="540" type="curve" smooth="yes"/>
      <point x="257" y="540"/>
      <point x="191" y="501"/>
      <point x="171" y="440" type="curve"/>
      <point x="163" y="440" type="line"/>
      <point x="163" y="763" type="line"/>
      <point x="75" y="763" type="line"/>
    </contour>
  </outline>
</glyph>
<glyph name="i" format="2">
  <advance width="238"/>
  <unicode hex="0069"/>
  <anchor x="65" y="0" name="ogonek"/>
  <outline>
    <contour>
      <point x="75" y="525" type="line"/>
      <point x="75" y="0" type="line"/>
      <point x="163" y="0" type="line"/>
      <point x="163" y="525" type="line"/>
    </contour>
    <contour>
      <point x="75" y="763" type="line"/>
      <point x="75" y="644" type="line"/>
      <point x="163" y="644" type="line"/>
      <point x="163" y="763" type="line"/>
    </contour>
  </outline>
</glyph>
<glyph name="j" format="2">
  <advance width="238"/>
  <unicode hex="006A"/>
  <outline>
    <contour>
      <point x="75" y="525" type="line"/>
      <point x="75" y="-101" type="line" smooth="yes"/>
      <point x="75" y="-144"/>
      <point x="52" y="-167"/>
      <point x="11" y="-167" type="curve"/>
      <point x="-95" y="-167" type="line"/>
      <point x="-95" y="-237" type="line"/>
      <point x="4" y="-237" type="line" smooth="yes"/>
      <point x="116" y="-237"/>
      <point x="163" y="-194"/>
      <point x="163" y="-89" type="curve"/>
      <point x="163" y="525" type="line"/>
    </contour>
    <contour>
      <point x="75" y="763" type="line"/>
      <point x="75" y="644" type="line"/>
      <point x="163" y="644" type="line"/>
      <point x="163" y="763" type="line"/>
    </contour>
  </outline>
</glyph>
<glyph name="k" format="2">
  <advance width="570"/>
  <unicode hex="006B"/>
  <anchor x="308" y="0" name="bottom"/>
  <anchor x="119" y="833" name="top"/>
  <outline>
    <contour>
      <point x="75" y="0" type="line"/>
      <point x="163" y="0" type="line"/>
      <point x="163" y="167" type="line"/>
      <point x="233" y="235" type="line"/>
      <point x="428" y="0" type="line"/>
      <point x="540" y="0" type="line"/>
      <point x="540" y="8" type="line"/>
      <point x="291" y="290" type="line"/>
      <point x="525" y="517" type="line"/>
      <point x="525" y="525" type="line"/>
      <point x="413" y="525" type="line"/>
      <point x="171" y="276" type="line"/>
      <point x="163" y="276" type="line"/>
      <point x="163" y="763" type="line"/>
      <point x="75" y="763" type="line"/>
    </contour>
  </outline>
</glyph>
<glyph name="l" format="2">
  <advance width="238"/>
  <unicode hex="006C"/>
  <anchor x="119" y="0" name="bottom"/>
  <anchor x="163" y="525" name="middle"/>
  <anchor x="119" y="833" name="top"/>
  <outline>
    <contour>
      <point x="75" y="763" type="line"/>
      <point x="75" y="0" type="line"/>
      <point x="163" y="0" type="line"/>
      <point x="163" y="763" type="line"/>
    </contour>
  </outline>
</glyph>
<glyph name="m" format="2">
  <advance width="915"/>
  <unicode hex="006D"/>
  <outline>
    <contour>
      <point x="507" y="271" type="line" smooth="yes"/>
      <point x="507" y="399"/>
      <point x="548" y="470"/>
      <point x="639" y="470" type="curve" smooth="yes"/>
      <point x="719" y="470"/>
      <point x="762" y="415"/>
      <point x="762" y="321" type="curve" smooth="yes"/>
      <point x="762" y="0" type="line"/>
      <point x="850" y="0" type="line"/>
      <point x="850" y="344" type="line" smooth="yes"/>
      <point x="850" y="464"/>
      <point x="777" y="540"/>
      <point x="661" y="540" type="curve" smooth="yes"/>
      <point x="577" y="540"/>
      <point x="519" y="501"/>
      <point x="499" y="440" type="curve"/>
      <point x="491" y="440" type="line"/>
      <point x="463" y="501"/>
      <point x="401" y="540"/>
      <point x="326" y="540" type="curve" smooth="yes"/>
      <point x="251" y="540"/>
      <point x="191" y="501"/>
      <point x="171" y="440" type="curve"/>
      <point x="163" y="440" type="line"/>
      <point x="163" y="525" type="line"/>
      <point x="75" y="525" type="line"/>
      <point x="75" y="0" type="line"/>
      <point x="163" y="0" type="line"/>
      <point x="163" y="268" type="line" smooth="yes"/>
      <point x="163" y="395"/>
      <point x="211" y="470"/>
      <point x="300" y="470" type="curve" smooth="yes"/>
      <point x="377" y="470"/>
      <point x="419" y="415"/>
      <point x="419" y="321" type="curve" smooth="yes"/>
      <point x="419" y="0" type="line"/>
      <point x="507" y="0" type="line"/>
    </contour>
  </outline>
</glyph>
<glyph name="n" format="2">
  <advance width="605"/>
  <unicode hex="006E"/>
  <anchor x="308" y="0" name="bottom"/>
  <anchor x="0" y="525" name="left"/>
  <anchor x="308" y="595" name="top"/>
  <outline>
    <contour>
      <point x="75" y="0" type="line"/>
      <point x="163" y="0" type="line"/>
      <point x="163" y="268" type="line" smooth="yes"/>
      <point x="163" y="395"/>
      <point x="218" y="470"/>
      <point x="316" y="470" type="curve" smooth="yes"/>
      <point x="404" y="470"/>
      <point x="452" y="415"/>
      <point x="452" y="321" type="curve" smooth="yes"/>
      <point x="452" y="0" type="line"/>
      <point x="540" y="0" type="line"/>
      <point x="540" y="344" type="line" smooth="yes"/>
      <point x="540" y="463"/>
      <point x="467" y="540"/>
      <point x="345" y="540" type="curve" smooth="yes"/>
      <point x="257" y="540"/>
      <point x="191" y="501"/>
      <point x="171" y="440" type="curve"/>
      <point x="163" y="440" type="line"/>
      <point x="163" y="525" type="line"/>
      <point x="75" y="525" type="line"/>
    </contour>
  </outline>
</glyph>
<glyph name="o" format="2">
  <advance width="605"/>
  <unicode hex="006F"/>
  <anchor x="303" y="0" name="bottom"/>
  <anchor x="440" y="0" name="ogonek"/>
  <anchor x="303" y="595" name="top"/>
  <outline>
    <contour>
      <point x="40" y="262" type="curve" smooth="yes"/>
      <point x="40" y="96"/>
      <point x="143" y="-15"/>
      <point x="303" y="-15" type="curve" smooth="yes"/>
      <point x="462" y="-15"/>
      <point x="565" y="96"/>
      <point x="565" y="262" type="curve" smooth="yes"/>
      <point x="565" y="431"/>
      <point x="461" y="540"/>
      <point x="303" y="540" type="curve" smooth="yes"/>
      <point x="143" y="540"/>
      <point x="40" y="429"/>
    </contour>
    <contour>
      <point x="128" y="264" type="curve" smooth="yes"/>
      <point x="128" y="389"/>
      <point x="198" y="470"/>
      <point x="303" y="470" type="curve" smooth="yes"/>
      <point x="410" y="470"/>
      <point x="477" y="389"/>
      <point x="477" y="264" type="curve" smooth="yes"/>
      <point x="477" y="136"/>
      <point x="410" y="55"/>
      <point x="303" y="55" type="curve" smooth="yes"/>
      <point x="198" y="55"/>
      <point x="128" y="136"/>
    </contour>
  </outline>
</glyph>
<glyph name="p" format="2">
  <advance width="625"/>
  <unicode hex="0070"/>
  <outline>
    <contour>
      <point x="75" y="-237" type="line"/>
      <point x="163" y="-237" type="line"/>
      <point x="163" y="81" type="line"/>
      <point x="171" y="81" type="line"/>
      <point x="191" y="22"/>
      <point x="256" y="-15"/>
      <point x="338" y="-15" type="curve" smooth="yes"/>
      <point x="477" y="-15"/>
      <point x="575" y="90"/>
      <point x="575" y="262" type="curve" smooth="yes"/>
      <point x="575" y="435"/>
      <point x="486" y="540"/>
      <point x="348" y="540" type="curve" smooth="yes"/>
      <point x="262" y="540"/>
      <point x="193" y="502"/>
      <point x="171" y="444" type="curve"/>
      <point x="163" y="444" type="line"/>
      <point x="163" y="525" type="line"/>
      <point x="75" y="525" type="line"/>
    </contour>
    <contour>
      <point x="163" y="265" type="curve" smooth="yes"/>
      <point x="163" y="391"/>
      <point x="225" y="470"/>
      <point x="326" y="470" type="curve" smooth="yes"/>
      <point x="425" y="470"/>
      <point x="487" y="393"/>
      <point x="487" y="266" type="curve" smooth="yes"/>
      <point x="487" y="133"/>
      <point x="426" y="55"/>
      <point x="326" y="55" type="curve" smooth="yes"/>
      <point x="225" y="55"/>
      <point x="163" y="135"/>
    </contour>
  </outline>
</glyph>
<glyph name="q" format="2">
  <advance width="625"/>
  <unicode hex="0071"/>
  <outline>
    <contour>
      <point x="550" y="-237" type="line"/>
      <point x="462" y="-237" type="line"/>
      <point x="462" y="81" type="line"/>
      <point x="454" y="81" type="line"/>
      <point x="434" y="22"/>
      <point x="369" y="-15"/>
      <point x="287" y="-15" type="curve" smooth="yes"/>
      <point x="148" y="-15"/>
      <point x="50" y="90"/>
      <point x="50" y="262" type="curve" smooth="yes"/>
      <point x="50" y="435"/>
      <point x="139" y="540"/>
      <point x="278" y="540" type="curve" smooth="yes"/>
      <point x="363" y="540"/>
      <point x="432" y="502"/>
      <point x="454" y="444" type="curve"/>
      <point x="462" y="444" type="line"/>
      <point x="462" y="525" type="line"/>
      <point x="550" y="525" type="line"/>
    </contour>
    <contour>
      <point x="462" y="265" type="curve" smooth="yes"/>
      <point x="462" y="392"/>
      <point x="399" y="470"/>
      <point x="299" y="470" type="curve" smooth="yes"/>
      <point x="200" y="470"/>
      <point x="138" y="393"/>
      <point x="138" y="266" type="curve" smooth="yes"/>
      <point x="138" y="132"/>
      <point x="200" y="55"/>
      <point x="299" y="55" type="curve" smooth="yes"/>
      <point x="399" y="55"/>
      <point x="462" y="133"/>
    </contour>
  </outline>
</glyph>
<glyph name="r" format="2">
  <advance width="410"/>
  <unicode hex="0072"/>
  <anchor x="238" y="0" name="bottom"/>
  <anchor x="238" y="595" name="top"/>
  <outline>
    <contour>
      <point x="75" y="0" type="line"/>
      <point x="163" y="0" type="line"/>
      <point x="163" y="273" type="line" smooth="yes"/>
      <point x="163" y="389"/>
      <point x="211" y="455"/>
      <point x="296" y="455" type="curve"/>
      <point x="400" y="455" type="line"/>
      <point x="400" y="525" type="line"/>
      <point x="319" y="525" type="line" smooth="yes"/>
      <point x="245" y="525"/>
      <point x="189" y="494"/>
      <point x="171" y="443" type="curve"/>
      <point x="163" y="443" type="line"/>
      <point x="163" y="525" type="line"/>
      <point x="75" y="525" type="line"/>
    </contour>
  </outline>
</glyph>
<glyph name="s" format="2">
  <advance width="575"/>
  <unicode hex="0073"/>
  <anchor x="288" y="0" name="bottom"/>
  <anchor x="288" y="595" name="top"/>
  <outline>
    <contour>
      <point x="525" y="150" type="curve" smooth="yes"/>
      <point x="525" y="250"/>
      <point x="438" y="304"/>
      <point x="285" y="312" type="curve" smooth="yes"/>
      <point x="191" y="317"/>
      <point x="152" y="338"/>
      <point x="152" y="387" type="curve" smooth="yes"/>
      <point x="152" y="441"/>
      <point x="199" y="470"/>
      <point x="276" y="470" type="curve" smooth="yes"/>
      <point x="367" y="470"/>
      <point x="424" y="429"/>
      <point x="436" y="353" type="curve"/>
      <point x="524" y="353" type="line"/>
      <point x="524" y="361" type="line"/>
      <point x="515" y="469"/>
      <point x="419" y="540"/>
      <point x="280" y="540" type="curve" smooth="yes"/>
      <point x="151" y="540"/>
      <point x="65" y="479"/>
      <point x="65" y="378" type="curve" smooth="yes"/>
      <point x="65" y="288"/>
      <point x="134" y="237"/>
      <point x="285" y="229" type="curve" smooth="yes"/>
      <point x="389" y="224"/>
      <point x="438" y="199"/>
      <point x="438" y="147" type="curve" smooth="yes"/>
      <point x="438" y="93"/>
      <point x="386" y="55"/>
      <point x="301" y="55" type="curve" smooth="yes"/>
      <point x="210" y="55"/>
      <point x="150" y="98"/>
      <point x="138" y="174" type="curve"/>
      <point x="50" y="174" type="line"/>
      <point x="50" y="166" type="line"/>
      <point x="60" y="58"/>
      <point x="159" y="-15"/>
      <point x="302" y="-15" type="curve" smooth="yes"/>
      <point x="435" y="-15"/>
      <point x="525" y="49"/>
    </contour>
  </outline>
</glyph>
<glyph name="t" format="2">
  <advance width="415"/>
  <unicode hex="0074"/>
  <anchor x="317" y="0" name="bottom"/>
  <anchor x="217" y="322" name="middle"/>
  <anchor x="280" y="778" name="top"/>
  <outline>
    <contour>
      <point x="216" y="644" type="line"/>
      <point x="128" y="644" type="line"/>
      <point x="128" y="591" type="line" smooth="yes"/>
      <point x="128" y="549"/>
      <point x="105" y="525"/>
      <point x="63" y="525" type="curve"/>
      <point x="40" y="525" type="line"/>
      <point x="40" y="458" type="line"/>
      <point x="128" y="458" type="line"/>
      <point x="128" y="148" type="line" smooth="yes"/>
      <point x="128" y="43"/>
      <point x="175" y="0"/>
      <point x="287" y="0" type="curve"/>
      <point x="371" y="0" type="line"/>
      <point x="371" y="70" type="line"/>
      <point x="280" y="70" type="line" smooth="yes"/>
      <point x="239" y="70"/>
      <point x="216" y="93"/>
      <point x="216" y="136" type="curve"/>
      <point x="216" y="458" type="line"/>
      <point x="375" y="458" type="line"/>
      <point x="375" y="525" type="line"/>
      <point x="195" y="525" type="line"/>
      <point x="195" y="533" type="line"/>
      <point x="208" y="536"/>
      <point x="216" y="552"/>
      <point x="216" y="575" type="curve"/>
    </contour>
  </outline>
</glyph>
<glyph name="u" format="2">
  <advance width="595"/>
  <unicode hex="0075"/>
  <anchor x="422" y="0" name="ogonek"/>
  <anchor x="293" y="595" name="top"/>
  <outline>
    <contour>
      <point x="520" y="525" type="line"/>
      <point x="432" y="525" type="line"/>
      <point x="432" y="257" type="line" smooth="yes"/>
      <point x="432" y="130"/>
      <point x="379" y="55"/>
      <point x="285" y="55" type="curve" smooth="yes"/>
      <point x="200" y="55"/>
      <point x="153" y="109"/>
      <point x="153" y="203" type="curve" smooth="yes"/>
      <point x="153" y="525" type="line"/>
      <point x="65" y="525" type="line"/>
      <point x="65" y="181" type="line" smooth="yes"/>
      <point x="65" y="62"/>
      <point x="137" y="-15"/>
      <point x="254" y="-15" type="curve" smooth="yes"/>
      <point x="340" y="-15"/>
      <point x="404" y="24"/>
      <point x="424" y="85" type="curve"/>
      <point x="432" y="85" type="line"/>
      <point x="432" y="0" type="line"/>
      <point x="520" y="0" type="line"/>
    </contour>
  </outline>
</glyph>
<glyph name="v" format="2">
  <advance width="560"/>
  <unicode hex="0076"/>
  <outline>
    <contour>
      <point x="218" y="0" type="line"/>
      <point x="342" y="0" type="line"/>
      <point x="530" y="517" type="line"/>
      <point x="530" y="525" type="line"/>
      <point x="436" y="525" type="line"/>
      <point x="284" y="80" type="line"/>
      <point x="276" y="80" type="line"/>
      <point x="125" y="525" type="line"/>
      <point x="30" y="525" type="line"/>
      <point x="30" y="517" type="line"/>
    </contour>
  </outline>
</glyph>
<glyph name="w" format="2">
  <advance width="740"/>
  <unicode hex="0077"/>
  <anchor x="370" y="595" name="top"/>
  <outline>
    <contour>
      <point x="151" y="0" type="line"/>
      <point x="273" y="0" type="line"/>
      <point x="366" y="445" type="line"/>
      <point x="374" y="445" type="line"/>
      <point x="467" y="0" type="line"/>
      <point x="589" y="0" type="line"/>
      <point x="720" y="517" type="line"/>
      <point x="720" y="525" type="line"/>
      <point x="626" y="525" type="line"/>
      <point x="532" y="80" type="line"/>
      <point x="524" y="80" type="line"/>
      <point x="431" y="525" type="line"/>
      <point x="309" y="525" type="line"/>
      <point x="216" y="80" type="line"/>
      <point x="208" y="80" type="line"/>
      <point x="114" y="525" type="line"/>
      <point x="20" y="525" type="line"/>
      <point x="20" y="517" type="line"/>
    </contour>
  </outline>
</glyph>
<glyph name="x" format="2">
  <advance width="540"/>
  <unicode hex="0078"/>
  <outline>
    <contour>
      <point x="209" y="263" type="line"/>
      <point x="20" y="8" type="line"/>
      <point x="20" y="0" type="line"/>
      <point x="122" y="0" type="line"/>
      <point x="266" y="211" type="line"/>
      <point x="274" y="211" type="line"/>
      <point x="418" y="0" type="line"/>
      <point x="520" y="0" type="line"/>
      <point x="520" y="8" type="line"/>
      <point x="331" y="263" type="line"/>
      <point x="520" y="517" type="line"/>
      <point x="520" y="525" type="line"/>
      <point x="418" y="525" type="line"/>
      <point x="274" y="314" type="line"/>
      <point x="266" y="314" type="line"/>
      <point x="122" y="525" type="line"/>
      <point x="20" y="525" type="line"/>
      <point x="20" y="517" type="line"/>
    </contour>
  </outline>
</glyph>
<glyph name="y" format="2">
  <advance width="515"/>
  <unicode hex="0079"/>
  <anchor x="245" y="595" name="top"/>
  <outline>
    <contour>
      <point x="387" y="525" type="line"/>
      <point x="255" y="108" type="line"/>
      <point x="247" y="108" type="line"/>
      <point x="118" y="525" type="line"/>
      <point x="20" y="525" type="line"/>
      <point x="20" y="517" type="line"/>
      <point x="208" y="0" type="line"/>
      <point x="182" y="-72" type="line" smooth="yes"/>
      <point x="157" y="-141"/>
      <point x="133" y="-167"/>
      <point x="87" y="-167" type="curve" smooth="yes"/>
      <point x="5" y="-167" type="line"/>
      <point x="5" y="-237" type="line"/>
      <point x="84" y="-237" type="line" smooth="yes"/>
      <point x="183" y="-237"/>
      <point x="225" y="-197"/>
      <point x="278" y="-51" type="curve" smooth="yes"/>
      <point x="485" y="517" type="line"/>
      <point x="485" y="525" type="line"/>
    </contour>
  </outline>
</glyph>
<glyph name="z" format="2">
  <advance width="534"/>
  <unicode hex="007A"/>
  <anchor x="267" y="595" name="top"/>
  <outline>
    <contour>
      <point x="60" y="0" type="line"/>
      <point x="474" y="0" type="line"/>
      <point x="474" y="70" type="line"/>
      <point x="160" y="70" type="line"/>
      <point x="160" y="78" type="line"/>
      <point x="474" y="451" type="line"/>
      <point x="474" y="525" type="line"/>
      <point x="60" y="525" type="line"/>
      <point x="60" y="455" type="line"/>
      <point x="374" y="455" type="line"/>
      <point x="374" y="447" type="line"/>
      <point x="60" y="74" type="line"/>
    </contour>
  </outline>
</glyph>
<glyph name="braceleft" format="2">
  <advance width="465"/>
  <unicode hex="007B"/>
  <outline>
    <contour>
      <point x="65" y="370" type="line"/>
      <point x="105" y="370" type="line" smooth="yes"/>
      <point x="146" y="370"/>
      <point x="169" y="393"/>
      <point x="169" y="436" type="curve" smooth="yes"/>
      <point x="169" y="685" type="line" smooth="yes"/>
      <point x="169" y="786"/>
      <point x="220" y="833"/>
      <point x="328" y="833" type="curve" smooth="yes"/>
      <point x="390" y="833" type="line"/>
      <point x="390" y="763" type="line"/>
      <point x="321" y="763" type="line" smooth="yes"/>
      <point x="280" y="763"/>
      <point x="257" y="740"/>
      <point x="257" y="697" type="curve" smooth="yes"/>
      <point x="257" y="441" type="line" smooth="yes"/>
      <point x="257" y="389"/>
      <point x="229" y="347"/>
      <point x="187" y="337" type="curve"/>
      <point x="187" y="329" type="line"/>
      <point x="229" y="318"/>
      <point x="257" y="277"/>
      <point x="257" y="225" type="curve" smooth="yes"/>
      <point x="257" y="-31" type="line" smooth="yes"/>
      <point x="257" y="-74"/>
      <point x="280" y="-97"/>
      <point x="321" y="-97" type="curve" smooth="yes"/>
      <point x="390" y="-97" type="line"/>
      <point x="390" y="-167" type="line"/>
      <point x="328" y="-167" type="line" smooth="yes"/>
      <point x="220" y="-167"/>
      <point x="169" y="-120"/>
      <point x="169" y="-19" type="curve" smooth="yes"/>
      <point x="169" y="230" type="line" smooth="yes"/>
      <point x="169" y="273"/>
      <point x="146" y="296"/>
      <point x="105" y="296" type="curve" smooth="yes"/>
      <point x="65" y="296" type="line"/>
    </contour>
  </outline>
</glyph>
<glyph name="bar" format="2">
  <advance width="238"/>
  <unicode hex="007C"/>
  <outline>
    <contour>
      <point x="75" y="763" type="line"/>
      <point x="75" y="-237" type="line"/>
      <point x="163" y="-237" type="line"/>
      <point x="163" y="763" type="line"/>
    </contour>
  </outline>
</glyph>
<glyph name="braceright" format="2">
  <advance width="465"/>
  <unicode hex="007D"/>
  <outline>
    <contour>
      <point x="400" y="370" type="line"/>
      <point x="400" y="296" type="line"/>
      <point x="360" y="296" type="line" smooth="yes"/>
      <point x="319" y="296"/>
      <point x="296" y="273"/>
      <point x="296" y="230" type="curve" smooth="yes"/>
      <point x="296" y="-19" type="line" smooth="yes"/>
      <point x="296" y="-120"/>
      <point x="245" y="-167"/>
      <point x="137" y="-167" type="curve" smooth="yes"/>
      <point x="75" y="-167" type="line"/>
      <point x="75" y="-97" type="line"/>
      <point x="144" y="-97" type="line" smooth="yes"/>
      <point x="185" y="-97"/>
      <point x="208" y="-74"/>
      <point x="208" y="-31" type="curve" smooth="yes"/>
      <point x="208" y="225" type="line" smooth="yes"/>
      <point x="208" y="277"/>
      <point x="236" y="318"/>
      <point x="278" y="329" type="curve"/>
      <point x="278" y="337" type="line"/>
      <point x="236" y="347"/>
      <point x="208" y="389"/>
      <point x="208" y="441" type="curve" smooth="yes"/>
      <point x="208" y="697" type="line" smooth="yes"/>
      <point x="208" y="740"/>
      <point x="185" y="763"/>
      <point x="144" y="763" type="curve" smooth="yes"/>
      <point x="75" y="763" type="line"/>
      <point x="75" y="833" type="line"/>
      <point x="137" y="833" type="line" smooth="yes"/>
      <point x="245" y="833"/>
      <point x="296" y="786"/>
      <point x="296" y="685" type="curve" smooth="yes"/>
      <point x="296" y="436" type="line" smooth="yes"/>
      <point x="296" y="393"/>
      <point x="319" y="370"/>
      <point x="360" y="370" type="curve" smooth="yes"/>
    </contour>
  </outline>
</glyph>
<glyph name="asciitilde" format="2">
  <advance width="500"/>
  <unicode hex="007E"/>
  <outline>
    <contour>
      <point x="50" y="225" type="curve"/>
      <point x="120" y="219" type="line"/>
      <point x="129" y="255"/>
      <point x="144" y="271"/>
      <point x="169" y="271" type="curve" smooth="yes"/>
      <point x="221" y="271"/>
      <point x="251" y="205"/>
      <point x="330" y="205" type="curve" smooth="yes"/>
      <point x="394" y="205"/>
      <point x="440" y="249"/>
      <point x="450" y="319" type="curve"/>
      <point x="380" y="327" type="line"/>
      <point x="371" y="291"/>
      <point x="357" y="275"/>
      <point x="333" y="275" type="curve" smooth="yes"/>
      <point x="284" y="275"/>
      <point x="260" y="342"/>
      <point x="177" y="342" type="curve" smooth="yes"/>
      <point x="109" y="342"/>
      <point x="60" y="296"/>
    </contour>
  </outline>
</glyph>
<glyph name="exclamdown" format="2">
  <advance width="288"/>
  <unicode hex="00A1"/>
  <outline>
    <contour>
      <point x="85" y="526" type="line"/>
      <point x="85" y="422" type="line"/>
      <point x="203" y="422" type="line"/>
      <point x="203" y="526" type="line"/>
    </contour>
    <contour>
      <point x="95" y="-229" type="line"/>
      <point x="95" y="-237" type="line"/>
      <point x="193" y="-237" type="line"/>
      <point x="193" y="-229" type="line"/>
      <point x="179" y="306" type="line"/>
      <point x="109" y="306" type="line"/>
    </contour>
  </outline>
</glyph>
<glyph name="cent" format="2">
  <advance width="600"/>
  <unicode hex="00A2"/>
  <anchor x="300" y="0" name="bottom"/>
  <anchor x="300" y="595" name="top"/>
  <outline>
    <component base="c"/>
    <contour>
      <point x="256" y="-100" type="line"/>
      <point x="344" y="-100" type="line"/>
      <point x="344" y="20" type="line"/>
      <point x="256" y="20" type="line"/>
    </contour>
    <contour>
      <point x="256" y="505" type="line"/>
      <point x="344" y="505" type="line"/>
      <point x="344" y="625" type="line"/>
      <point x="256" y="625" type="line"/>
    </contour>
  </outline>
</glyph>
<glyph name="sterling" format="2">
  <advance width="675"/>
  <unicode hex="00A3"/>
  <outline>
    <component base="macron.case" xOffset="81" yOffset="-569"/>
    <contour>
      <point x="477" y="525" type="line"/>
      <point x="477" y="632"/>
      <point x="417" y="698"/>
      <point x="323" y="698" type="curve" smooth="yes"/>
      <point x="227" y="698"/>
      <point x="168" y="630"/>
      <point x="168" y="523" type="curve" smooth="yes"/>
      <point x="168" y="174" type="line" smooth="yes"/>
      <point x="168" y="126"/>
      <point x="152" y="94"/>
      <point x="125" y="88" type="curve"/>
      <point x="125" y="80" type="line"/>
      <point x="575" y="80" type="line"/>
      <point x="575" y="0" type="line"/>
      <point x="20" y="0" type="line"/>
      <point x="20" y="84" type="line"/>
      <point x="43" y="84"/>
      <point x="70" y="145"/>
      <point x="70" y="202" type="curve" smooth="yes"/>
      <point x="70" y="523" type="line" smooth="yes"/>
      <point x="70" y="680"/>
      <point x="167" y="778"/>
      <point x="323" y="778" type="curve" smooth="yes"/>
      <point x="478" y="778"/>
      <point x="575" y="685"/>
      <point x="575" y="531" type="curve" smooth="yes"/>
      <point x="575" y="525" type="line"/>
    </contour>
  </outline>
</glyph>
<glyph name="brokenbar" format="2">
  <advance width="238"/>
  <unicode hex="00A6"/>
  <outline>
    <contour>
      <point x="75" y="763" type="line"/>
      <point x="75" y="351" type="line"/>
      <point x="163" y="351" type="line"/>
      <point x="163" y="763" type="line"/>
    </contour>
    <contour>
      <point x="75" y="174" type="line"/>
      <point x="75" y="-237" type="line"/>
      <point x="163" y="-237" type="line"/>
      <point x="163" y="174" type="line"/>
    </contour>
  </outline>
</glyph>
<glyph name="section" format="2">
  <advance width="591"/>
  <unicode hex="00A7"/>
  <outline>
    <contour>
      <point x="525" y="32" type="curve" smooth="yes"/>
      <point x="525" y="130"/>
      <point x="442" y="186"/>
      <point x="299" y="193" type="curve" smooth="yes"/>
      <point x="193" y="199"/>
      <point x="138" y="230"/>
      <point x="138" y="282" type="curve" smooth="yes"/>
      <point x="138" y="319"/>
      <point x="167" y="349"/>
      <point x="216" y="359" type="curve"/>
      <point x="203" y="425" type="line"/>
      <point x="111" y="409"/>
      <point x="51" y="344"/>
      <point x="51" y="270" type="curve" smooth="yes"/>
      <point x="51" y="178"/>
      <point x="143" y="118"/>
      <point x="293" y="111" type="curve" smooth="yes"/>
      <point x="389" y="106"/>
      <point x="438" y="81"/>
      <point x="438" y="29" type="curve" smooth="yes"/>
      <point x="438" y="-25"/>
      <point x="386" y="-63"/>
      <point x="301" y="-63" type="curve" smooth="yes"/>
      <point x="210" y="-63"/>
      <point x="150" y="-20"/>
      <point x="138" y="56" type="curve"/>
      <point x="50" y="56" type="line"/>
      <point x="50" y="48" type="line"/>
      <point x="60" y="-60"/>
      <point x="159" y="-133"/>
      <point x="302" y="-133" type="curve" smooth="yes"/>
      <point x="435" y="-133"/>
      <point x="525" y="-69"/>
    </contour>
    <contour>
      <point x="66" y="494" type="curve" smooth="yes"/>
      <point x="66" y="396"/>
      <point x="149" y="340"/>
      <point x="292" y="333" type="curve" smooth="yes"/>
      <point x="398" y="327"/>
      <point x="453" y="296"/>
      <point x="453" y="244" type="curve" smooth="yes"/>
      <point x="453" y="207"/>
      <point x="424" y="177"/>
      <point x="375" y="167" type="curve"/>
      <point x="388" y="101" type="line"/>
      <point x="480" y="117"/>
      <point x="540" y="182"/>
      <point x="540" y="256" type="curve" smooth="yes"/>
      <point x="540" y="348"/>
      <point x="448" y="408"/>
      <point x="298" y="415" type="curve" smooth="yes"/>
      <point x="202" y="420"/>
      <point x="153" y="445"/>
      <point x="153" y="497" type="curve" smooth="yes"/>
      <point x="153" y="551"/>
      <point x="205" y="589"/>
      <point x="290" y="589" type="curve" smooth="yes"/>
      <point x="381" y="589"/>
      <point x="441" y="546"/>
      <point x="453" y="470" type="curve"/>
      <point x="541" y="470" type="line"/>
      <point x="541" y="478" type="line"/>
      <point x="531" y="586"/>
      <point x="432" y="659"/>
      <point x="289" y="659" type="curve" smooth="yes"/>
      <point x="156" y="659"/>
      <point x="66" y="595"/>
    </contour>
  </outline>
</glyph>
<glyph name="dieresis" format="2">
  <advance width="415"/>
  <unicode hex="00A8"/>
  <anchor x="215" y="595" name="_top"/>
  <outline>
    <contour>
      <point x="75" y="650" type="line"/>
      <point x="173" y="650" type="line"/>
      <point x="173" y="738" type="line"/>
      <point x="75" y="738" type="line"/>
    </contour>
    <contour>
      <point x="257" y="650" type="line"/>
      <point x="355" y="650" type="line"/>
      <point x="355" y="738" type="line"/>
      <point x="257" y="738" type="line"/>
    </contour>
  </outline>
</glyph>
<glyph name="copyright" format="2">
  <advance width="758"/>
  <unicode hex="00A9"/>
  <outline>
    <contour>
      <point x="35" y="323" type="curve" smooth="yes"/>
      <point x="35" y="120"/>
      <point x="173" y="-15"/>
      <point x="379" y="-15" type="curve" smooth="yes"/>
      <point x="585" y="-15"/>
      <point x="723" y="120"/>
      <point x="723" y="323" type="curve" smooth="yes"/>
      <point x="723" y="524"/>
      <point x="585" y="659"/>
      <point x="379" y="659" type="curve" smooth="yes"/>
      <point x="173" y="659"/>
      <point x="35" y="524"/>
    </contour>
    <contour>
      <point x="95" y="323" type="curve" smooth="yes"/>
      <point x="95" y="497"/>
      <point x="209" y="614"/>
      <point x="379" y="614" type="curve" smooth="yes"/>
      <point x="549" y="614"/>
      <point x="663" y="497"/>
      <point x="663" y="323" type="curve" smooth="yes"/>
      <point x="663" y="147"/>
      <point x="549" y="30"/>
      <point x="379" y="30" type="curve" smooth="yes"/>
      <point x="209" y="30"/>
      <point x="95" y="147"/>
    </contour>
    <contour>
      <point x="543" y="402" type="line"/>
      <point x="537" y="478"/>
      <point x="470" y="534"/>
      <point x="376" y="534" type="curve" smooth="yes"/>
      <point x="259" y="534"/>
      <point x="183" y="450"/>
      <point x="183" y="323" type="curve" smooth="yes"/>
      <point x="183" y="197"/>
      <point x="259" y="112"/>
      <point x="376" y="112" type="curve" smooth="yes"/>
      <point x="469" y="112"/>
      <point x="537" y="169"/>
      <point x="543" y="245" type="curve"/>
      <point x="543" y="249" type="line"/>
      <point x="483" y="249" type="line"/>
      <point x="476" y="196"/>
      <point x="435" y="157"/>
      <point x="375" y="157" type="curve" smooth="yes"/>
      <point x="297" y="157"/>
      <point x="243" y="223"/>
      <point x="243" y="323" type="curve" smooth="yes"/>
      <point x="243" y="423"/>
      <point x="296" y="489"/>
      <point x="374" y="489" type="curve" smooth="yes"/>
      <point x="434" y="489"/>
      <point x="475" y="451"/>
      <point x="483" y="398" type="curve"/>
      <point x="543" y="398" type="line"/>
    </contour>
  </outline>
</glyph>
<glyph name="registered" format="2">
  <advance width="832"/>
  <unicode hex="00AE"/>
  <outline>
    <contour>
      <point x="35" y="323" type="curve" smooth="yes"/>
      <point x="35" y="120"/>
      <point x="173" y="-15"/>
      <point x="379" y="-15" type="curve" smooth="yes"/>
      <point x="585" y="-15"/>
      <point x="723" y="120"/>
      <point x="723" y="323" type="curve" smooth="yes"/>
      <point x="723" y="524"/>
      <point x="585" y="659"/>
      <point x="379" y="659" type="curve" smooth="yes"/>
      <point x="173" y="659"/>
      <point x="35" y="524"/>
    </contour>
    <contour>
      <point x="95" y="323" type="curve" smooth="yes"/>
      <point x="95" y="497"/>
      <point x="209" y="614"/>
      <point x="379" y="614" type="curve" smooth="yes"/>
      <point x="549" y="614"/>
      <point x="663" y="497"/>
      <point x="663" y="323" type="curve" smooth="yes"/>
      <point x="663" y="147"/>
      <point x="549" y="30"/>
      <point x="379" y="30" type="curve" smooth="yes"/>
      <point x="209" y="30"/>
      <point x="95" y="147"/>
    </contour>
    <contour>
      <point x="230" y="133" type="line"/>
      <point x="290" y="133" type="line"/>
      <point x="290" y="304" type="line"/>
      <point x="381" y="304" type="line" smooth="yes"/>
      <point x="456" y="304"/>
      <point x="465" y="280"/>
      <point x="465" y="231" type="curve" smooth="yes"/>
      <point x="465" y="187" type="line" smooth="yes"/>
      <point x="465" y="154"/>
      <point x="487" y="133"/>
      <point x="519" y="133" type="curve" smooth="yes"/>
      <point x="558" y="133" type="line"/>
      <point x="558" y="173" type="line"/>
      <point x="545" y="173" type="line" smooth="yes"/>
      <point x="532" y="173"/>
      <point x="525" y="179"/>
      <point x="525" y="192" type="curve" smooth="yes"/>
      <point x="525" y="230" type="line" smooth="yes"/>
      <point x="525" y="283"/>
      <point x="500" y="313"/>
      <point x="454" y="325" type="curve"/>
      <point x="454" y="329" type="line"/>
      <point x="498" y="342"/>
      <point x="525" y="370"/>
      <point x="525" y="417" type="curve" smooth="yes"/>
      <point x="525" y="486"/>
      <point x="467" y="525"/>
      <point x="382" y="525" type="curve" smooth="yes"/>
      <point x="230" y="525" type="line"/>
    </contour>
    <contour>
      <point x="290" y="349" type="line"/>
      <point x="290" y="480" type="line"/>
      <point x="382" y="480" type="line" smooth="yes"/>
      <point x="441" y="480"/>
      <point x="465" y="461"/>
      <point x="465" y="416" type="curve" smooth="yes"/>
      <point x="465" y="368"/>
      <point x="440" y="349"/>
      <point x="381" y="349" type="curve" smooth="yes"/>
    </contour>
  </outline>
</glyph>
<glyph name="macron" format="2">
  <advance width="465"/>
  <unicode hex="00AF"/>
  <anchor x="233" y="685" name="_middle"/>
  <anchor x="233" y="595" name="_top"/>
  <outline>
    <contour>
      <point x="390" y="650" type="line"/>
      <point x="390" y="720" type="line"/>
      <point x="75" y="720" type="line"/>
      <point x="75" y="650" type="line"/>
    </contour>
  </outline>
</glyph>
<glyph name="degree" format="2">
  <advance width="327"/>
  <unicode hex="00B0"/>
  <outline>
    <contour>
      <point x="20" y="643" type="curve" smooth="yes"/>
      <point x="20" y="564"/>
      <point x="77" y="510"/>
      <point x="164" y="510" type="curve" smooth="yes"/>
      <point x="250" y="510"/>
      <point x="307" y="564"/>
      <point x="307" y="643" type="curve" smooth="yes"/>
      <point x="307" y="724"/>
      <point x="250" y="778"/>
      <point x="164" y="778" type="curve" smooth="yes"/>
      <point x="77" y="778"/>
      <point x="20" y="724"/>
    </contour>
    <contour>
      <point x="100" y="643" type="curve" smooth="yes"/>
      <point x="100" y="688"/>
      <point x="127" y="718"/>
      <point x="164" y="718" type="curve" smooth="yes"/>
      <point x="201" y="718"/>
      <point x="227" y="688"/>
      <point x="227" y="643" type="curve" smooth="yes"/>
      <point x="227" y="600"/>
      <point x="201" y="570"/>
      <point x="164" y="570" type="curve" smooth="yes"/>
      <point x="127" y="570"/>
      <point x="100" y="600"/>
    </contour>
  </outline>
</glyph>
<glyph name="plusminus" format="2">
  <advance width="570"/>
  <unicode hex="00B1"/>
  <outline>
    <contour>
      <point x="241" y="234" type="line"/>
      <point x="329" y="234" type="line"/>
      <point x="329" y="644" type="line"/>
      <point x="241" y="644" type="line"/>
    </contour>
    <contour>
      <point x="495" y="404" type="line"/>
      <point x="495" y="474" type="line"/>
      <point x="75" y="474" type="line"/>
      <point x="75" y="404" type="line"/>
    </contour>
    <contour>
      <point x="495" y="104" type="line"/>
      <point x="495" y="174" type="line"/>
      <point x="75" y="174" type="line"/>
      <point x="75" y="104" type="line"/>
    </contour>
  </outline>
</glyph>
<glyph name="acute" format="2">
  <advance width="305"/>
  <unicode hex="00B4"/>
  <anchor x="135" y="595" name="_top"/>
  <outline>
    <contour>
      <point x="245" y="755" type="line"/>
      <point x="245" y="763" type="line"/>
      <point x="147" y="763" type="line"/>
      <point x="65" y="633" type="line" smooth="yes"/>
      <point x="65" y="625" type="line"/>
      <point x="135" y="625" type="line"/>
    </contour>
  </outline>
</glyph>
<glyph name="paragraph" format="2">
  <advance width="595"/>
  <unicode hex="00B6"/>
  <outline>
    <contour>
      <point x="243" y="-115" type="line"/>
      <point x="520" y="-115" type="line"/>
      <point x="520" y="763" type="line"/>
      <point x="460" y="763" type="line"/>
      <point x="460" y="-70" type="line"/>
      <point x="373" y="-70" type="line"/>
      <point x="373" y="763" type="line"/>
      <point x="261" y="763" type="line" smooth="yes"/>
      <point x="145" y="763"/>
      <point x="50" y="671"/>
      <point x="50" y="559" type="curve" smooth="yes"/>
      <point x="50" y="447"/>
      <point x="145" y="355"/>
      <point x="261" y="355" type="curve" smooth="yes"/>
      <point x="313" y="355" type="line"/>
      <point x="313" y="-70" type="line"/>
      <point x="243" y="-70" type="line"/>
    </contour>
  </outline>
</glyph>
<glyph name="periodcentered" format="2">
  <advance width="253"/>
  <unicode hex="00B7"/>
  <anchor x="-25" y="525" name="_middle"/>
  <outline>
    <contour>
      <point x="75" y="421" type="line"/>
      <point x="193" y="421" type="line"/>
      <point x="193" y="525" type="line"/>
      <point x="75" y="525" type="line"/>
    </contour>
  </outline>
</glyph>
<glyph name="cedilla" format="2">
  <advance width="253"/>
  <unicode hex="00B8"/>
  <anchor x="137" y="0" name="_bottom"/>
  <outline>
    <contour>
      <point x="107" y="20" type="line"/>
      <point x="107" y="-111" type="line"/>
      <point x="182" y="-111" type="line" smooth="yes"/>
      <point x="203" y="-111"/>
      <point x="215" y="-123"/>
      <point x="215" y="-143" type="curve" smooth="yes"/>
      <point x="215" y="-164"/>
      <point x="202" y="-177"/>
      <point x="182" y="-177" type="curve" smooth="yes"/>
      <point x="45" y="-177" type="line"/>
      <point x="45" y="-237" type="line"/>
      <point x="182" y="-237" type="line" smooth="yes"/>
      <point x="250" y="-237"/>
      <point x="293" y="-199"/>
      <point x="293" y="-141" type="curve" smooth="yes"/>
      <point x="293" y="-85"/>
      <point x="252" y="-51"/>
      <point x="182" y="-51" type="curve" smooth="yes"/>
      <point x="167" y="-51" type="line"/>
      <point x="167" y="20" type="line"/>
    </contour>
  </outline>
</glyph>
<glyph name="questiondown" format="2">
  <advance width="650"/>
  <unicode hex="00BF"/>
  <outline>
    <contour>
      <point x="389" y="764" type="line"/>
      <point x="271" y="764" type="line"/>
      <point x="271" y="660" type="line"/>
      <point x="389" y="660" type="line"/>
    </contour>
    <contour>
      <point x="377" y="551" type="line"/>
      <point x="378" y="509" type="line" smooth="yes"/>
      <point x="380" y="439"/>
      <point x="328" y="377"/>
      <point x="234" y="328" type="curve" smooth="yes"/>
      <point x="155" y="287"/>
      <point x="128" y="248"/>
      <point x="128" y="194" type="curve" smooth="yes"/>
      <point x="128" y="112"/>
      <point x="189" y="66"/>
      <point x="299" y="66" type="curve" smooth="yes"/>
      <point x="418" y="66"/>
      <point x="484" y="127"/>
      <point x="489" y="239" type="curve"/>
      <point x="585" y="239" type="line"/>
      <point x="585" y="231" type="line"/>
      <point x="573" y="77"/>
      <point x="466" y="-14"/>
      <point x="299" y="-14" type="curve" smooth="yes"/>
      <point x="136" y="-14"/>
      <point x="30" y="64"/>
      <point x="30" y="184" type="curve" smooth="yes"/>
      <point x="30" y="272"/>
      <point x="87" y="354"/>
      <point x="197" y="410" type="curve" smooth="yes"/>
      <point x="255" y="439"/>
      <point x="279" y="466"/>
      <point x="279" y="512" type="curve" smooth="yes"/>
      <point x="279" y="551" type="line"/>
    </contour>
  </outline>
</glyph>
<glyph name="AE" format="2">
  <advance width="1055"/>
  <unicode hex="00C6"/>
  <anchor x="505" y="833" name="top"/>
  <outline>
    <contour>
      <point x="477" y="0" type="line"/>
      <point x="575" y="0" type="line"/>
      <point x="575" y="763" type="line"/>
      <point x="477" y="763" type="line"/>
    </contour>
    <contour>
      <point x="512" y="683" type="line"/>
      <point x="980" y="683" type="line"/>
      <point x="980" y="763" type="line"/>
      <point x="512" y="763" type="line"/>
    </contour>
    <contour>
      <point x="512" y="0" type="line"/>
      <point x="980" y="0" type="line"/>
      <point x="980" y="80" type="line"/>
      <point x="512" y="80" type="line"/>
    </contour>
    <contour>
      <point x="512" y="355" type="line"/>
      <point x="965" y="355" type="line"/>
      <point x="965" y="432" type="line"/>
      <point x="512" y="432" type="line"/>
    </contour>
    <contour>
      <point x="305" y="763" type="line"/>
      <point x="30" y="8" type="line"/>
      <point x="30" y="0" type="line"/>
      <point x="132" y="0" type="line"/>
      <point x="370" y="684" type="line"/>
      <point x="477" y="684" type="line"/>
      <point x="477" y="763" type="line"/>
    </contour>
    <contour>
      <point x="159" y="249" type="line"/>
      <point x="535" y="249" type="line"/>
      <point x="535" y="329" type="line"/>
      <point x="159" y="329" type="line"/>
    </contour>
  </outline>
</glyph>
<glyph name="Eth" format="2">
  <advance width="879"/>
  <unicode hex="00D0"/>
  <anchor x="418" y="833" name="top"/>
  <outline>
    <contour>
      <point x="150" y="0" type="line"/>
      <point x="248" y="0" type="line"/>
      <point x="248" y="763" type="line"/>
      <point x="150" y="763" type="line"/>
    </contour>
    <contour>
      <point x="185" y="683" type="line"/>
      <point x="410" y="683" type="line"/>
      <point x="410" y="763" type="line"/>
      <point x="185" y="763" type="line"/>
    </contour>
    <contour>
      <point x="185" y="0" type="line"/>
      <point x="410" y="0" type="line"/>
      <point x="410" y="80" type="line"/>
      <point x="185" y="80" type="line"/>
    </contour>
    <contour>
      <point x="75" y="355" type="line"/>
      <point x="410" y="355" type="line"/>
      <point x="410" y="432" type="line"/>
      <point x="75" y="432" type="line"/>
    </contour>
    <contour>
      <point x="410" y="763" type="curve"/>
      <point x="410" y="683" type="line"/>
      <point x="604" y="683"/>
      <point x="706" y="581"/>
      <point x="706" y="389" type="curve" smooth="yes"/>
      <point x="706" y="186"/>
      <point x="605" y="80"/>
      <point x="410" y="80" type="curve"/>
      <point x="410" y="0" type="line"/>
      <point x="653" y="0"/>
      <point x="804" y="147"/>
      <point x="804" y="383" type="curve" smooth="yes"/>
      <point x="804" y="617"/>
      <point x="653" y="763"/>
    </contour>
  </outline>
</glyph>
<glyph name="multiply" format="2">
  <advance width="510"/>
  <unicode hex="00D7"/>
  <outline>
    <contour>
      <point x="77" y="174" type="line"/>
      <point x="20" y="231" type="line"/>
      <point x="433" y="644" type="line"/>
      <point x="490" y="587" type="line"/>
    </contour>
    <contour>
      <point x="20" y="587" type="line"/>
      <point x="77" y="644" type="line"/>
      <point x="490" y="231" type="line"/>
      <point x="433" y="174" type="line"/>
    </contour>
  </outline>
</glyph>
<glyph name="Oslash" format="2">
  <advance width="820"/>
  <unicode hex="00D8"/>
  <anchor x="410" y="833" name="top"/>
  <outline>
    <component base="O"/>
    <contour>
      <point x="50" y="0" type="line"/>
      <point x="148" y="0" type="line"/>
      <point x="770" y="755" type="line"/>
      <point x="770" y="763" type="line"/>
      <point x="672" y="763" type="line"/>
      <point x="50" y="8" type="line"/>
    </contour>
  </outline>
</glyph>
<glyph name="Thorn" format="2">
  <advance width="685"/>
  <unicode hex="00DE"/>
  <outline>
    <contour>
      <point x="75" y="0" type="line"/>
      <point x="173" y="0" type="line"/>
      <point x="173" y="763" type="line"/>
      <point x="75" y="763" type="line"/>
    </contour>
    <contour>
      <point x="110" y="525" type="line"/>
      <point x="386" y="525" type="line"/>
      <point x="386" y="605" type="line"/>
      <point x="110" y="605" type="line"/>
    </contour>
    <contour>
      <point x="110" y="169" type="line"/>
      <point x="386" y="169" type="line"/>
      <point x="386" y="249" type="line"/>
      <point x="110" y="249" type="line"/>
    </contour>
    <contour>
      <point x="386" y="605" type="curve"/>
      <point x="386" y="525" type="line"/>
      <point x="496" y="525"/>
      <point x="547" y="479"/>
      <point x="547" y="391" type="curve" smooth="yes"/>
      <point x="547" y="297"/>
      <point x="491" y="249"/>
      <point x="386" y="249" type="curve"/>
      <point x="386" y="169" type="line"/>
      <point x="548" y="169"/>
      <point x="645" y="252"/>
      <point x="645" y="388" type="curve" smooth="yes"/>
      <point x="645" y="524"/>
      <point x="548" y="605"/>
    </contour>
  </outline>
</glyph>
<glyph name="germandbls" format="2">
  <advance width="616"/>
  <unicode hex="00DF"/>
  <outline>
    <contour>
      <point x="163" y="0" type="line"/>
      <point x="163" y="627" type="line" smooth="yes"/>
      <point x="163" y="670"/>
      <point x="186" y="693"/>
      <point x="267" y="693" type="curve" smooth="yes"/>
      <point x="376" y="693"/>
      <point x="444" y="652"/>
      <point x="444" y="562" type="curve" smooth="yes"/>
      <point x="444" y="478"/>
      <point x="385" y="437"/>
      <point x="273" y="437" type="curve" smooth="yes"/>
      <point x="234" y="437" type="line"/>
      <point x="234" y="367" type="line"/>
      <point x="273" y="367" type="line" smooth="yes"/>
      <point x="409" y="367"/>
      <point x="478" y="321"/>
      <point x="478" y="220" type="curve" smooth="yes"/>
      <point x="478" y="121"/>
      <point x="411" y="70"/>
      <point x="290" y="70" type="curve" smooth="yes"/>
      <point x="234" y="70" type="line"/>
      <point x="234" y="0" type="line"/>
      <point x="287" y="0" type="line" smooth="yes"/>
      <point x="455" y="0"/>
      <point x="566" y="86"/>
      <point x="566" y="215" type="curve" smooth="yes"/>
      <point x="566" y="308"/>
      <point x="513" y="372"/>
      <point x="410" y="400" type="curve"/>
      <point x="410" y="408" type="line"/>
      <point x="490" y="430"/>
      <point x="532" y="484"/>
      <point x="532" y="563" type="curve" smooth="yes"/>
      <point x="532" y="690"/>
      <point x="424" y="763"/>
      <point x="253" y="763" type="curve" smooth="yes"/>
      <point x="122" y="763"/>
      <point x="75" y="720"/>
      <point x="75" y="615" type="curve" smooth="yes"/>
      <point x="75" y="0" type="line"/>
    </contour>
  </outline>
</glyph>
<glyph name="ae" format="2">
  <advance width="974"/>
  <unicode hex="00E6"/>
  <anchor x="487" y="595" name="top"/>
  <outline>
    <contour>
      <point x="65" y="361" type="curve"/>
      <point x="65" y="353" type="line"/>
      <point x="153" y="353" type="line"/>
      <point x="168" y="434"/>
      <point x="216" y="470"/>
      <point x="306" y="470" type="curve" smooth="yes"/>
      <point x="383" y="470"/>
      <point x="427" y="442"/>
      <point x="427" y="393" type="curve" smooth="yes"/>
      <point x="427" y="340"/>
      <point x="377" y="313"/>
      <point x="279" y="313" type="curve" smooth="yes"/>
      <point x="134" y="313"/>
      <point x="50" y="254"/>
      <point x="50" y="148" type="curve" smooth="yes"/>
      <point x="50" y="48"/>
      <point x="131" y="-15"/>
      <point x="261" y="-15" type="curve" smooth="yes"/>
      <point x="363" y="-15"/>
      <point x="443" y="24"/>
      <point x="468" y="91" type="curve"/>
      <point x="476" y="91" type="line"/>
      <point x="507" y="24"/>
      <point x="588" y="-15"/>
      <point x="685" y="-15" type="curve" smooth="yes"/>
      <point x="816" y="-15"/>
      <point x="908" y="55"/>
      <point x="922" y="166" type="curve"/>
      <point x="922" y="174" type="line"/>
      <point x="834" y="174" type="line"/>
      <point x="820" y="99"/>
      <point x="764" y="55"/>
      <point x="682" y="55" type="curve" smooth="yes"/>
      <point x="575" y="55"/>
      <point x="516" y="131"/>
      <point x="511" y="252" type="curve"/>
      <point x="924" y="252" type="line"/>
      <point x="924" y="315" type="line" smooth="yes"/>
      <point x="924" y="451"/>
      <point x="833" y="540"/>
      <point x="682" y="540" type="curve" smooth="yes"/>
      <point x="589" y="540"/>
      <point x="516" y="506"/>
      <point x="490" y="448" type="curve"/>
      <point x="482" y="448" type="line"/>
      <point x="461" y="505"/>
      <point x="390" y="540"/>
      <point x="299" y="540" type="curve" smooth="yes"/>
      <point x="168" y="540"/>
      <point x="80" y="468"/>
    </contour>
    <contour>
      <point x="515" y="319" type="line"/>
      <point x="527" y="410"/>
      <point x="586" y="470"/>
      <point x="682" y="470" type="curve" smooth="yes"/>
      <point x="777" y="470"/>
      <point x="839" y="410"/>
      <point x="839" y="319" type="curve"/>
    </contour>
    <contour>
      <point x="419" y="292" type="curve"/>
      <point x="427" y="292" type="line"/>
      <point x="427" y="237" type="line" smooth="yes"/>
      <point x="427" y="118"/>
      <point x="368" y="55"/>
      <point x="260" y="55" type="curve" smooth="yes"/>
      <point x="182" y="55"/>
      <point x="138" y="88"/>
      <point x="138" y="146" type="curve" smooth="yes"/>
      <point x="138" y="210"/>
      <point x="190" y="240"/>
      <point x="283" y="240" type="curve" smooth="yes"/>
      <point x="359" y="240"/>
      <point x="412" y="260"/>
    </contour>
  </outline>
</glyph>
<glyph name="eth" format="2">
  <advance width="617"/>
  <unicode hex="00F0"/>
  <outline>
    <contour>
      <point x="307" y="763" type="line"/>
      <point x="464" y="691"/>
      <point x="567" y="516"/>
      <point x="567" y="315" type="curve" smooth="yes"/>
      <point x="567" y="113"/>
      <point x="468" y="-15"/>
      <point x="298" y="-15" type="curve" smooth="yes"/>
      <point x="138" y="-15"/>
      <point x="40" y="98"/>
      <point x="40" y="265" type="curve" smooth="yes"/>
      <point x="40" y="432"/>
      <point x="136" y="540"/>
      <point x="280" y="540" type="curve" smooth="yes"/>
      <point x="379" y="540"/>
      <point x="452" y="489"/>
      <point x="473" y="400" type="curve"/>
      <point x="481" y="400" type="line"/>
      <point x="460" y="554"/>
      <point x="364" y="676"/>
      <point x="199" y="755" type="curve"/>
      <point x="199" y="763" type="line"/>
    </contour>
    <contour>
      <point x="466" y="263" type="curve" smooth="yes"/>
      <point x="466" y="391"/>
      <point x="401" y="470"/>
      <point x="295" y="470" type="curve" smooth="yes"/>
      <point x="189" y="470"/>
      <point x="128" y="392"/>
      <point x="128" y="263" type="curve" smooth="yes"/>
      <point x="128" y="133"/>
      <point x="190" y="55"/>
      <point x="298" y="55" type="curve" smooth="yes"/>
      <point x="404" y="55"/>
      <point x="466" y="130"/>
    </contour>
    <contour>
      <point x="192" y="575" type="line"/>
      <point x="192" y="645" type="line"/>
      <point x="544" y="763" type="line"/>
      <point x="552" y="763" type="line"/>
      <point x="552" y="693" type="line"/>
      <point x="200" y="575" type="line"/>
    </contour>
  </outline>
</glyph>
<glyph name="divide" format="2">
  <advance width="535"/>
  <unicode hex="00F7"/>
  <outline>
    <contour>
      <point x="500" y="382" type="line"/>
      <point x="500" y="452" type="line"/>
      <point x="35" y="452" type="line"/>
      <point x="35" y="382" type="line"/>
    </contour>
    <contour>
      <point x="208" y="174" type="line"/>
      <point x="326" y="174" type="line"/>
      <point x="326" y="278" type="line"/>
      <point x="208" y="278" type="line"/>
    </contour>
    <contour>
      <point x="208" y="555" type="line"/>
      <point x="326" y="555" type="line"/>
      <point x="326" y="659" type="line"/>
      <point x="208" y="659" type="line"/>
    </contour>
  </outline>
</glyph>
<glyph name="oslash" format="2">
  <advance width="605"/>
  <unicode hex="00F8"/>
  <anchor x="303" y="595" name="top"/>
  <outline>
    <component base="o"/>
    <contour>
      <point x="55" y="0" type="line"/>
      <point x="143" y="0" type="line"/>
      <point x="550" y="516" type="line"/>
      <point x="550" y="524" type="line"/>
      <point x="462" y="524" type="line"/>
      <point x="55" y="8" type="line"/>
    </contour>
  </outline>
</glyph>
<glyph name="Hbar" format="2">
  <advance width="785"/>
  <unicode hex="0126"/>
  <anchor x="393" y="833" name="top"/>
  <outline>
    <contour>
      <point x="95" y="0" type="line"/>
      <point x="193" y="0" type="line"/>
      <point x="193" y="763" type="line"/>
      <point x="95" y="763" type="line"/>
    </contour>
    <contour>
      <point x="592" y="0" type="line"/>
      <point x="690" y="0" type="line"/>
      <point x="690" y="763" type="line"/>
      <point x="592" y="763" type="line"/>
    </contour>
    <contour>
      <point x="147" y="352" type="line"/>
      <point x="633" y="352" type="line"/>
      <point x="633" y="432" type="line"/>
      <point x="147" y="432" type="line"/>
    </contour>
    <contour>
      <point x="765" y="595" type="line"/>
      <point x="765" y="665" type="line"/>
      <point x="20" y="665" type="line"/>
      <point x="20" y="595" type="line"/>
    </contour>
  </outline>
</glyph>
<glyph name="dotlessi" format="2">
  <advance width="238"/>
  <unicode hex="0131"/>
  <anchor x="119" y="595" name="top"/>
  <outline>
    <contour>
      <point x="75" y="525" type="line"/>
      <point x="75" y="0" type="line"/>
      <point x="163" y="0" type="line"/>
      <point x="163" y="525" type="line"/>
    </contour>
  </outline>
</glyph>
<glyph name="IJ" format="2">
  <advance width="918"/>
  <unicode hex="0132"/>
  <anchor x="799" y="833" name="top"/>
  <outline>
    <contour>
      <point x="416" y="237" type="line"/>
      <point x="416" y="130"/>
      <point x="481" y="65"/>
      <point x="583" y="65" type="curve" smooth="yes"/>
      <point x="686" y="65"/>
      <point x="750" y="133"/>
      <point x="750" y="240" type="curve" smooth="yes"/>
      <point x="750" y="763" type="line"/>
      <point x="848" y="763" type="line"/>
      <point x="848" y="240" type="line" smooth="yes"/>
      <point x="848" y="83"/>
      <point x="746" y="-15"/>
      <point x="583" y="-15" type="curve" smooth="yes"/>
      <point x="420" y="-15"/>
      <point x="318" y="77"/>
      <point x="318" y="231" type="curve" smooth="yes"/>
      <point x="318" y="237" type="line"/>
    </contour>
    <contour>
      <point x="318" y="335" type="line"/>
      <point x="318" y="763" type="line"/>
      <point x="416" y="763" type="line"/>
      <point x="416" y="335" type="line"/>
    </contour>
  </outline>
</glyph>
<glyph name="ij" format="2">
  <advance width="476"/>
  <unicode hex="0133"/>
  <outline>
    <contour>
      <point x="75" y="525" type="line"/>
      <point x="75" y="0" type="line"/>
      <point x="163" y="0" type="line"/>
      <point x="163" y="525" type="line"/>
    </contour>
    <contour>
      <point x="75" y="763" type="line"/>
      <point x="75" y="693" type="line"/>
      <point x="401" y="693" type="line"/>
      <point x="401" y="763" type="line"/>
    </contour>
    <contour>
      <point x="313" y="525" type="line"/>
      <point x="313" y="-101" type="line" smooth="yes"/>
      <point x="313" y="-144"/>
      <point x="290" y="-167"/>
      <point x="249" y="-167" type="curve" smooth="yes"/>
      <point x="75" y="-167" type="line"/>
      <point x="75" y="-237" type="line"/>
      <point x="242" y="-237" type="line" smooth="yes"/>
      <point x="354" y="-237"/>
      <point x="401" y="-194"/>
      <point x="401" y="-89" type="curve" smooth="yes"/>
      <point x="401" y="525" type="line"/>
    </contour>
  </outline>
</glyph>
<glyph name="kgreenlandic" format="2">
  <advance width="570"/>
  <unicode hex="0138"/>
  <anchor x="308" y="0" name="bottom"/>
  <outline>
    <contour>
      <point x="75" y="0" type="line"/>
      <point x="163" y="0" type="line"/>
      <point x="163" y="167" type="line"/>
      <point x="233" y="235" type="line"/>
      <point x="428" y="0" type="line"/>
      <point x="540" y="0" type="line"/>
      <point x="540" y="8" type="line"/>
      <point x="291" y="290" type="line"/>
      <point x="525" y="517" type="line"/>
      <point x="525" y="525" type="line"/>
      <point x="413" y="525" type="line"/>
      <point x="171" y="276" type="line"/>
      <point x="163" y="276" type="line"/>
      <point x="163" y="525" type="line"/>
      <point x="75" y="525" type="line"/>
    </contour>
  </outline>
</glyph>
<glyph name="Lslash" format="2">
  <advance width="675"/>
  <unicode hex="0141"/>
  <anchor x="343" y="0" name="bottom"/>
  <anchor x="124" y="833" name="top"/>
  <outline>
    <component base="L"/>
    <contour>
      <point x="20" y="174" type="line"/>
      <point x="20" y="244" type="line"/>
      <point x="322" y="408" type="line"/>
      <point x="330" y="408" type="line"/>
      <point x="330" y="338" type="line"/>
      <point x="28" y="174" type="line"/>
    </contour>
  </outline>
</glyph>
<glyph name="lslash" format="2">
  <advance width="310"/>
  <unicode hex="0142"/>
  <anchor x="155" y="0" name="bottom"/>
  <anchor x="155" y="833" name="top"/>
  <outline>
    <component base="l" xOffset="36"/>
    <contour>
      <point x="0" y="174" type="line"/>
      <point x="0" y="244" type="line"/>
      <point x="302" y="408" type="line"/>
      <point x="310" y="408" type="line"/>
      <point x="310" y="338" type="line"/>
      <point x="8" y="174" type="line"/>
    </contour>
  </outline>
</glyph>
<glyph name="Eng" format="2">
  <advance width="745"/>
  <unicode hex="014A"/>
  <outline>
    <contour>
      <point x="75" y="0" type="line"/>
      <point x="173" y="0" type="line"/>
      <point x="173" y="410" type="line" smooth="yes"/>
      <point x="173" y="594"/>
      <point x="249" y="698"/>
      <point x="391" y="698" type="curve" smooth="yes"/>
      <point x="507" y="698"/>
      <point x="572" y="629"/>
      <point x="572" y="508" type="curve" smooth="yes"/>
      <point x="572" y="147" type="line" smooth="yes"/>
      <point x="572" y="104"/>
      <point x="549" y="80"/>
      <point x="508" y="80" type="curve" smooth="yes"/>
      <point x="412" y="80" type="line"/>
      <point x="412" y="0" type="line"/>
      <point x="501" y="0" type="line" smooth="yes"/>
      <point x="620" y="0"/>
      <point x="670" y="48"/>
      <point x="670" y="159" type="curve" smooth="yes"/>
      <point x="670" y="540" type="line" smooth="yes"/>
      <point x="670" y="688"/>
      <point x="575" y="778"/>
      <point x="428" y="778" type="curve" smooth="yes"/>
      <point x="318" y="778"/>
      <point x="224" y="728"/>
      <point x="181" y="645" type="curve"/>
      <point x="173" y="645" type="line"/>
      <point x="173" y="763" type="line"/>
      <point x="75" y="763" type="line"/>
    </contour>
  </outline>
</glyph>
<glyph name="eng" format="2">
  <advance width="605"/>
  <unicode hex="014B"/>
  <anchor x="308" y="0" name="bottom"/>
  <anchor x="0" y="525" name="left"/>
  <anchor x="388" y="595" name="top"/>
  <outline>
    <component base="n"/>
    <contour>
      <point x="452" y="50" type="line"/>
      <point x="452" y="-101" type="line" smooth="yes"/>
      <point x="452" y="-144"/>
      <point x="429" y="-167"/>
      <point x="388" y="-167" type="curve" smooth="yes"/>
      <point x="282" y="-167" type="line"/>
      <point x="282" y="-237" type="line"/>
      <point x="381" y="-237" type="line" smooth="yes"/>
      <point x="493" y="-237"/>
      <point x="540" y="-194"/>
      <point x="540" y="-89" type="curve" smooth="yes"/>
      <point x="540" y="50" type="line"/>
    </contour>
  </outline>
</glyph>
<glyph name="OE" format="2">
  <advance width="1230"/>
  <unicode hex="0152"/>
  <outline>
    <contour>
      <point x="652" y="0" type="line"/>
      <point x="750" y="0" type="line"/>
      <point x="750" y="763" type="line"/>
      <point x="652" y="763" type="line"/>
      <point x="652" y="623" type="line"/>
      <point x="644" y="623" type="line"/>
      <point x="592" y="723"/>
      <point x="505" y="778"/>
      <point x="391" y="778" type="curve" smooth="yes"/>
      <point x="200" y="778"/>
      <point x="75" y="624"/>
      <point x="75" y="382" type="curve" smooth="yes"/>
      <point x="75" y="139"/>
      <point x="199" y="-15"/>
      <point x="392" y="-15" type="curve" smooth="yes"/>
      <point x="507" y="-15"/>
      <point x="592" y="39"/>
      <point x="644" y="139" type="curve"/>
      <point x="652" y="139" type="line"/>
    </contour>
    <contour>
      <point x="173" y="380" type="curve" smooth="yes"/>
      <point x="173" y="574"/>
      <point x="266" y="698"/>
      <point x="414" y="698" type="curve" smooth="yes"/>
      <point x="560" y="698"/>
      <point x="652" y="574"/>
      <point x="652" y="380" type="curve" smooth="yes"/>
      <point x="652" y="188"/>
      <point x="560" y="65"/>
      <point x="414" y="65" type="curve" smooth="yes"/>
      <point x="266" y="65"/>
      <point x="173" y="188"/>
    </contour>
    <contour>
      <point x="687" y="683" type="line"/>
      <point x="1155" y="683" type="line"/>
      <point x="1155" y="763" type="line"/>
      <point x="687" y="763" type="line"/>
    </contour>
    <contour>
      <point x="687" y="0" type="line"/>
      <point x="1155" y="0" type="line"/>
      <point x="1155" y="80" type="line"/>
      <point x="687" y="80" type="line"/>
    </contour>
    <contour>
      <point x="687" y="355" type="line"/>
      <point x="1140" y="355" type="line"/>
      <point x="1140" y="432" type="line"/>
      <point x="687" y="432" type="line"/>
    </contour>
  </outline>
</glyph>
<glyph name="oe" format="2">
  <advance width="1030"/>
  <unicode hex="0153"/>
  <outline>
    <contour>
      <point x="40" y="262" type="curve" smooth="yes"/>
      <point x="40" y="96"/>
      <point x="143" y="-15"/>
      <point x="304" y="-15" type="curve" smooth="yes"/>
      <point x="404" y="-15"/>
      <point x="487" y="28"/>
      <point x="522" y="101" type="curve"/>
      <point x="530" y="101" type="line"/>
      <point x="565" y="27"/>
      <point x="630" y="-15"/>
      <point x="733" y="-15" type="curve" smooth="yes"/>
      <point x="866" y="-15"/>
      <point x="964" y="55"/>
      <point x="978" y="166" type="curve"/>
      <point x="978" y="174" type="line"/>
      <point x="890" y="174" type="line"/>
      <point x="876" y="99"/>
      <point x="820" y="55"/>
      <point x="738" y="55" type="curve" smooth="yes"/>
      <point x="631" y="55"/>
      <point x="572" y="131"/>
      <point x="567" y="252" type="curve"/>
      <point x="980" y="252" type="line"/>
      <point x="980" y="315" type="line" smooth="yes"/>
      <point x="980" y="451"/>
      <point x="884" y="540"/>
      <point x="736" y="540" type="curve" smooth="yes"/>
      <point x="635" y="540"/>
      <point x="565" y="499"/>
      <point x="531" y="422" type="curve"/>
      <point x="523" y="422" type="line"/>
      <point x="485" y="499"/>
      <point x="409" y="540"/>
      <point x="308" y="540" type="curve" smooth="yes"/>
      <point x="143" y="540"/>
      <point x="40" y="429"/>
    </contour>
    <contour>
      <point x="128" y="264" type="curve" smooth="yes"/>
      <point x="128" y="389"/>
      <point x="198" y="470"/>
      <point x="304" y="470" type="curve" smooth="yes"/>
      <point x="410" y="470"/>
      <point x="477" y="389"/>
      <point x="477" y="264" type="curve" smooth="yes"/>
      <point x="477" y="136"/>
      <point x="410" y="55"/>
      <point x="304" y="55" type="curve" smooth="yes"/>
      <point x="198" y="55"/>
      <point x="128" y="136"/>
    </contour>
    <contour>
      <point x="571" y="319" type="line"/>
      <point x="583" y="410"/>
      <point x="642" y="470"/>
      <point x="738" y="470" type="curve" smooth="yes"/>
      <point x="833" y="470"/>
      <point x="895" y="410"/>
      <point x="895" y="319" type="curve"/>
    </contour>
  </outline>
</glyph>
<glyph name="tbar" format="2">
  <advance width="415"/>
  <unicode hex="0167"/>
  <anchor x="317" y="0" name="bottom"/>
  <anchor x="217" y="322" name="middle"/>
  <anchor x="280" y="778" name="top"/>
  <outline>
    <component base="t"/>
    <contour>
      <point x="375" y="287" type="line"/>
      <point x="375" y="357" type="line"/>
      <point x="39" y="357" type="line"/>
      <point x="39" y="287" type="line"/>
    </contour>
  </outline>
</glyph>
<glyph name="longs" format="2">
  <advance width="343"/>
  <unicode hex="017F"/>
  <outline>
    <contour>
      <point x="163" y="0" type="line"/>
      <point x="163" y="627" type="line" smooth="yes"/>
      <point x="163" y="670"/>
      <point x="186" y="693"/>
      <point x="227" y="693" type="curve" smooth="yes"/>
      <point x="333" y="693" type="line"/>
      <point x="333" y="763" type="line"/>
      <point x="234" y="763" type="line" smooth="yes"/>
      <point x="122" y="763"/>
      <point x="75" y="720"/>
      <point x="75" y="615" type="curve" smooth="yes"/>
      <point x="75" y="0" type="line"/>
    </contour>
  </outline>
</glyph>
<glyph name="florin" format="2">
  <advance width="420"/>
  <unicode hex="0192"/>
  <outline>
    <contour>
      <point x="149" y="615" type="curve" smooth="yes"/>
      <point x="147" y="591" type="line" smooth="yes"/>
      <point x="143" y="549"/>
      <point x="118" y="525"/>
      <point x="76" y="525" type="curve" smooth="yes"/>
      <point x="30" y="525" type="line"/>
      <point x="30" y="458" type="line"/>
      <point x="135" y="458" type="line"/>
      <point x="86" y="-101" type="line" smooth="yes"/>
      <point x="82" y="-143"/>
      <point x="56" y="-167"/>
      <point x="16" y="-167" type="curve" smooth="yes"/>
      <point x="-52" y="-167" type="line"/>
      <point x="-52" y="-237" type="line"/>
      <point x="3" y="-237" type="line" smooth="yes"/>
      <point x="115" y="-237"/>
      <point x="166" y="-194"/>
      <point x="175" y="-89" type="curve" smooth="yes"/>
      <point x="223" y="458" type="line"/>
      <point x="410" y="458" type="line"/>
      <point x="410" y="525" type="line"/>
      <point x="215" y="525" type="line"/>
      <point x="215" y="533" type="line"/>
      <point x="225" y="535"/>
      <point x="231" y="549"/>
      <point x="233" y="575" type="curve" smooth="yes"/>
      <point x="238" y="630" type="line" smooth="yes"/>
      <point x="242" y="671"/>
      <point x="267" y="693"/>
      <point x="308" y="693" type="curve" smooth="yes"/>
      <point x="406" y="693" type="line"/>
      <point x="406" y="763" type="line"/>
      <point x="321" y="763" type="line" smooth="yes"/>
      <point x="209" y="763"/>
      <point x="158" y="720"/>
    </contour>
  </outline>
</glyph>
<glyph name="dotlessj" format="2">
  <advance width="238"/>
  <unicode hex="0237"/>
  <anchor x="119" y="595" name="top"/>
  <outline>
    <contour>
      <point x="75" y="525" type="line"/>
      <point x="75" y="-101" type="line" smooth="yes"/>
      <point x="75" y="-144"/>
      <point x="52" y="-167"/>
      <point x="11" y="-167" type="curve" smooth="yes"/>
      <point x="-95" y="-167" type="line"/>
      <point x="-95" y="-237" type="line"/>
      <point x="4" y="-237" type="line" smooth="yes"/>
      <point x="116" y="-237"/>
      <point x="163" y="-194"/>
      <point x="163" y="-89" type="curve" smooth="yes"/>
      <point x="163" y="525" type="line"/>
    </contour>
  </outline>
</glyph>
<glyph name="circumflex" format="2">
  <advance width="384"/>
  <unicode hex="02C6"/>
  <anchor x="192" y="595" name="_top"/>
  <outline>
    <contour>
      <point x="236" y="763" type="line"/>
      <point x="148" y="763" type="line"/>
      <point x="30" y="633" type="line"/>
      <point x="30" y="625" type="line"/>
      <point x="118" y="625" type="line"/>
      <point x="190" y="713" type="line"/>
      <point x="195" y="713" type="line"/>
      <point x="266" y="625" type="line"/>
      <point x="354" y="625" type="line"/>
      <point x="354" y="633" type="line"/>
    </contour>
  </outline>
</glyph>
<glyph name="caron" format="2">
  <advance width="384"/>
  <unicode hex="02C7"/>
  <anchor x="192" y="595" name="_top"/>
  <outline>
    <contour>
      <point x="236" y="625" type="line"/>
      <point x="354" y="755" type="line"/>
      <point x="354" y="763" type="line"/>
      <point x="266" y="763" type="line"/>
      <point x="195" y="675" type="line"/>
      <point x="190" y="675" type="line"/>
      <point x="118" y="763" type="line"/>
      <point x="30" y="763" type="line"/>
      <point x="30" y="755" type="line"/>
      <point x="148" y="625" type="line"/>
    </contour>
  </outline>
</glyph>
<glyph name="macronmod" format="2">
  <advance width="485"/>
  <unicode hex="02C9"/>
  <anchor x="243" y="685" name="_middle"/>
  <outline>
    <contour>
      <point x="410" y="650" type="line"/>
      <point x="410" y="720" type="line"/>
      <point x="75" y="720" type="line"/>
      <point x="75" y="650" type="line"/>
    </contour>
  </outline>
</glyph>
<glyph name="breve" format="2">
  <advance width="338"/>
  <unicode hex="02D8"/>
  <anchor x="169" y="595" name="_top"/>
  <outline>
    <contour>
      <point x="228" y="704" type="line"/>
      <point x="228" y="676"/>
      <point x="207" y="660"/>
      <point x="170" y="660" type="curve" smooth="yes"/>
      <point x="132" y="660"/>
      <point x="110" y="676"/>
      <point x="110" y="704" type="curve"/>
      <point x="30" y="704" type="line"/>
      <point x="30" y="639"/>
      <point x="81" y="600"/>
      <point x="169" y="600" type="curve" smooth="yes"/>
      <point x="257" y="600"/>
      <point x="308" y="639"/>
      <point x="308" y="704" type="curve"/>
    </contour>
  </outline>
</glyph>
<glyph name="dotaccent" format="2">
  <advance width="223"/>
  <unicode hex="02D9"/>
  <anchor x="119" y="881" name="_bottom"/>
  <anchor x="-5" y="694" name="_middle"/>
  <anchor x="119" y="595" name="_top"/>
  <outline>
    <contour>
      <point x="75" y="644" type="line"/>
      <point x="163" y="644" type="line"/>
      <point x="163" y="763" type="line"/>
      <point x="75" y="763" type="line"/>
    </contour>
  </outline>
</glyph>
<glyph name="ring" format="2">
  <advance width="248"/>
  <unicode hex="02DA"/>
  <anchor x="124" y="595" name="_top"/>
  <outline>
    <contour>
      <point x="30" y="694" type="curve" smooth="yes"/>
      <point x="30" y="644"/>
      <point x="67" y="610"/>
      <point x="125" y="610" type="curve" smooth="yes"/>
      <point x="180" y="610"/>
      <point x="218" y="644"/>
      <point x="218" y="694" type="curve" smooth="yes"/>
      <point x="218" y="745"/>
      <point x="180" y="778"/>
      <point x="125" y="778" type="curve" smooth="yes"/>
      <point x="67" y="778"/>
      <point x="30" y="745"/>
    </contour>
    <contour>
      <point x="90" y="694" type="curve" smooth="yes"/>
      <point x="90" y="718"/>
      <point x="103" y="733"/>
      <point x="124" y="733" type="curve" smooth="yes"/>
      <point x="144" y="733"/>
      <point x="158" y="718"/>
      <point x="158" y="694" type="curve" smooth="yes"/>
      <point x="158" y="671"/>
      <point x="144" y="655"/>
      <point x="124" y="655" type="curve" smooth="yes"/>
      <point x="103" y="655"/>
      <point x="90" y="671"/>
    </contour>
  </outline>
</glyph>
<glyph name="ogonek" format="2">
  <advance width="248"/>
  <unicode hex="02DB"/>
  <anchor x="106" y="0" name="_ogonek"/>
  <outline>
    <contour>
      <point x="88" y="-117" type="curve" smooth="yes"/>
      <point x="88" y="-149"/>
      <point x="107" y="-167"/>
      <point x="139" y="-167" type="curve" smooth="yes"/>
      <point x="204" y="-167" type="line"/>
      <point x="204" y="-237" type="line"/>
      <point x="129" y="-237" type="line" smooth="yes"/>
      <point x="47" y="-237"/>
      <point x="0" y="-198"/>
      <point x="0" y="-134" type="curve" smooth="yes"/>
      <point x="0" y="-76"/>
      <point x="38" y="-28"/>
      <point x="106" y="12" type="curve" smooth="yes"/>
      <point x="172" y="51" type="line"/>
      <point x="204" y="0" type="line"/>
      <point x="137" y="-42" type="line" smooth="yes"/>
      <point x="105" y="-62"/>
      <point x="88" y="-87"/>
    </contour>
  </outline>
</glyph>
<glyph name="tilde" format="2">
  <advance width="515"/>
  <unicode hex="02DC"/>
  <anchor x="258" y="595" name="_top"/>
  <outline>
    <contour>
      <point x="75" y="645" type="curve"/>
      <point x="145" y="639" type="line"/>
      <point x="153" y="671"/>
      <point x="166" y="681"/>
      <point x="188" y="681" type="curve" smooth="yes"/>
      <point x="233" y="681"/>
      <point x="253" y="625"/>
      <point x="330" y="625" type="curve" smooth="yes"/>
      <point x="388" y="625"/>
      <point x="430" y="656"/>
      <point x="440" y="723" type="curve"/>
      <point x="370" y="731" type="line"/>
      <point x="362" y="699"/>
      <point x="348" y="689"/>
      <point x="326" y="689" type="curve" smooth="yes"/>
      <point x="280" y="689"/>
      <point x="262" y="746"/>
      <point x="185" y="746" type="curve" smooth="yes"/>
      <point x="128" y="746"/>
      <point x="85" y="715"/>
    </contour>
  </outline>
</glyph>
<glyph name="hungarumlaut" format="2">
  <advance width="455"/>
  <unicode hex="02DD"/>
  <anchor x="175" y="595" name="_top"/>
  <outline>
    <contour>
      <point x="245" y="755" type="line"/>
      <point x="245" y="763" type="line"/>
      <point x="147" y="763" type="line"/>
      <point x="65" y="633" type="line" smooth="yes"/>
      <point x="65" y="625" type="line"/>
      <point x="135" y="625" type="line"/>
    </contour>
    <contour>
      <point x="395" y="755" type="line"/>
      <point x="395" y="763" type="line"/>
      <point x="297" y="763" type="line"/>
      <point x="215" y="633" type="line" smooth="yes"/>
      <point x="215" y="625" type="line"/>
      <point x="285" y="625" type="line"/>
    </contour>
  </outline>
</glyph>
<glyph name="commaaccentcomb" format="2">
  <advance width="253"/>
  <unicode hex="0326"/>
  <anchor x="124" y="0" name="_bottom"/>
  <anchor x="183" y="-137" name="_left"/>
  <outline>
    <contour>
      <point x="95" y="-237" type="line"/>
      <point x="103" y="-237" type="line"/>
      <point x="161" y="-185" type="line" smooth="yes"/>
      <point x="178" y="-169"/>
      <point x="183" y="-155"/>
      <point x="183" y="-137" type="curve" smooth="yes"/>
      <point x="183" y="-137" type="line"/>
      <point x="133" y="-137" type="line"/>
      <point x="133" y="-145" type="line"/>
      <point x="95" y="-185" type="line"/>
    </contour>
    <contour>
      <point x="95" y="-137" type="line"/>
      <point x="183" y="-137" type="line"/>
      <point x="183" y="-60" type="line"/>
      <point x="95" y="-60" type="line"/>
    </contour>
  </outline>
</glyph>
<glyph name="mu" format="2">
  <advance width="615"/>
  <unicode hex="03BC"/>
  <outline>
    <contour>
      <point x="540" y="525" type="line"/>
      <point x="452" y="525" type="line"/>
      <point x="452" y="277" type="line" smooth="yes"/>
      <point x="452" y="135"/>
      <point x="397" y="55"/>
      <point x="300" y="55" type="curve" smooth="yes"/>
      <point x="206" y="55"/>
      <point x="153" y="135"/>
      <point x="153" y="277" type="curve" smooth="yes"/>
      <point x="153" y="525" type="line"/>
      <point x="65" y="525" type="line"/>
      <point x="65" y="-237" type="line"/>
      <point x="153" y="-237" type="line"/>
      <point x="153" y="80" type="line"/>
      <point x="161" y="80" type="line"/>
      <point x="182" y="21"/>
      <point x="232" y="-15"/>
      <point x="299" y="-15" type="curve" smooth="yes"/>
      <point x="368" y="-15"/>
      <point x="426" y="23"/>
      <point x="444" y="85" type="curve"/>
      <point x="452" y="85" type="line"/>
      <point x="452" y="0" type="line"/>
      <point x="540" y="0" type="line"/>
    </contour>
  </outline>
</glyph>
<glyph name="endash" format="2">
  <advance width="615"/>
  <unicode hex="2013"/>
  <outline>
    <contour>
      <point x="540" y="249" type="line"/>
      <point x="540" y="319" type="line"/>
      <point x="75" y="319" type="line"/>
      <point x="75" y="249" type="line"/>
    </contour>
  </outline>
</glyph>
<glyph name="emdash" format="2">
  <advance width="925"/>
  <unicode hex="2014"/>
  <outline>
    <contour>
      <point x="850" y="249" type="line"/>
      <point x="850" y="319" type="line"/>
      <point x="75" y="319" type="line"/>
      <point x="75" y="249" type="line"/>
    </contour>
  </outline>
</glyph>
<glyph name="bullet" format="2">
  <advance width="320"/>
  <unicode hex="2022"/>
  <outline>
    <contour>
      <point x="30" y="284" type="curve" smooth="yes"/>
      <point x="30" y="218"/>
      <point x="74" y="174"/>
      <point x="140" y="174" type="curve" smooth="yes"/>
      <point x="206" y="174"/>
      <point x="250" y="218"/>
      <point x="250" y="284" type="curve" smooth="yes"/>
      <point x="250" y="349"/>
      <point x="206" y="393"/>
      <point x="140" y="393" type="curve" smooth="yes"/>
      <point x="74" y="393"/>
      <point x="30" y="349"/>
    </contour>
  </outline>
</glyph>
<glyph name="ellipsis" format="2">
  <advance width="705"/>
  <unicode hex="2026"/>
  <outline>
    <contour>
      <point x="75" y="0" type="line"/>
      <point x="193" y="0" type="line"/>
      <point x="193" y="104" type="line"/>
      <point x="75" y="104" type="line"/>
    </contour>
    <contour>
      <point x="301" y="0" type="line"/>
      <point x="419" y="0" type="line"/>
      <point x="419" y="104" type="line"/>
      <point x="301" y="104" type="line"/>
    </contour>
    <contour>
      <point x="527" y="0" type="line"/>
      <point x="645" y="0" type="line"/>
      <point x="645" y="104" type="line"/>
      <point x="527" y="104" type="line"/>
    </contour>
  </outline>
</glyph>
<glyph name="perthousand" format="2">
  <advance width="1016"/>
  <unicode hex="2030"/>
  <outline>
    <contour>
      <point x="460" y="160" type="curve" smooth="yes"/>
      <point x="441" y="53"/>
      <point x="489" y="-15"/>
      <point x="576" y="-15" type="curve" smooth="yes"/>
      <point x="624" y="-15"/>
      <point x="664" y="6"/>
      <point x="693" y="45" type="curve"/>
      <point x="701" y="45" type="line"/>
      <point x="710" y="7"/>
      <point x="744" y="-15"/>
      <point x="793" y="-15" type="curve" smooth="yes"/>
      <point x="881" y="-15"/>
      <point x="953" y="55"/>
      <point x="972" y="160" type="curve" smooth="yes"/>
      <point x="990" y="265"/>
      <point x="943" y="335"/>
      <point x="856" y="335" type="curve" smooth="yes"/>
      <point x="808" y="335"/>
      <point x="769" y="314"/>
      <point x="739" y="275" type="curve"/>
      <point x="731" y="275" type="line"/>
      <point x="721" y="313"/>
      <point x="688" y="335"/>
      <point x="639" y="335" type="curve" smooth="yes"/>
      <point x="551" y="335"/>
      <point x="479" y="266"/>
    </contour>
    <contour>
      <point x="545" y="160" type="curve" smooth="yes"/>
      <point x="556" y="223"/>
      <point x="590" y="267"/>
      <point x="627" y="267" type="curve" smooth="yes"/>
      <point x="664" y="267"/>
      <point x="686" y="223"/>
      <point x="675" y="160" type="curve" smooth="yes"/>
      <point x="664" y="97"/>
      <point x="629" y="53"/>
      <point x="592" y="53" type="curve" smooth="yes"/>
      <point x="555" y="53"/>
      <point x="534" y="97"/>
    </contour>
    <contour>
      <point x="757" y="160" type="curve" smooth="yes"/>
      <point x="768" y="223"/>
      <point x="802" y="267"/>
      <point x="839" y="267" type="curve" smooth="yes"/>
      <point x="876" y="267"/>
      <point x="898" y="223"/>
      <point x="887" y="160" type="curve" smooth="yes"/>
      <point x="876" y="97"/>
      <point x="841" y="53"/>
      <point x="804" y="53" type="curve" smooth="yes"/>
      <point x="767" y="53"/>
      <point x="746" y="97"/>
    </contour>
    <contour>
      <point x="216" y="0" type="line"/>
      <point x="304" y="0" type="line"/>
      <point x="579" y="755" type="line"/>
      <point x="579" y="763" type="line"/>
      <point x="506" y="763" type="line"/>
      <point x="503" y="753"/>
      <point x="472" y="746"/>
      <point x="437" y="746" type="curve" smooth="yes"/>
      <point x="361" y="746"/>
      <point x="325" y="778"/>
      <point x="216" y="778" type="curve" smooth="yes"/>
      <point x="126" y="778"/>
      <point x="53" y="708"/>
      <point x="35" y="603" type="curve" smooth="yes"/>
      <point x="16" y="498"/>
      <point x="64" y="428"/>
      <point x="154" y="428" type="curve" smooth="yes"/>
      <point x="244" y="428"/>
      <point x="316" y="498"/>
      <point x="335" y="603" type="curve" smooth="yes"/>
      <point x="341" y="635"/>
      <point x="340" y="664"/>
      <point x="334" y="689" type="curve"/>
      <point x="352" y="682"/>
      <point x="371" y="676"/>
      <point x="399" y="676" type="curve" smooth="yes"/>
      <point x="430" y="676"/>
      <point x="454" y="683"/>
      <point x="459" y="698" type="curve"/>
      <point x="467" y="698" type="line"/>
      <point x="216" y="8" type="line"/>
    </contour>
    <contour>
      <point x="120" y="603" type="curve" smooth="yes"/>
      <point x="131" y="666"/>
      <point x="165" y="710"/>
      <point x="202" y="710" type="curve" smooth="yes"/>
      <point x="239" y="710"/>
      <point x="261" y="666"/>
      <point x="250" y="603" type="curve" smooth="yes"/>
      <point x="239" y="540"/>
      <point x="202" y="496"/>
      <point x="165" y="496" type="curve" smooth="yes"/>
      <point x="128" y="496"/>
      <point x="109" y="540"/>
    </contour>
  </outline>
</glyph>
<glyph name="guilsinglleft" format="2">
  <advance width="292"/>
  <unicode hex="2039"/>
  <outline>
    <contour>
      <point x="154" y="421" type="line"/>
      <point x="154" y="421"/>
      <point x="50" y="263"/>
      <point x="50" y="263" type="curve"/>
      <point x="154" y="104" type="line"/>
      <point x="242" y="104" type="line"/>
      <point x="242" y="112" type="line"/>
      <point x="138" y="263" type="line"/>
      <point x="242" y="413" type="line"/>
      <point x="242" y="421" type="line"/>
    </contour>
  </outline>
</glyph>
<glyph name="fraction" format="2">
  <advance width="556"/>
  <unicode hex="2044"/>
  <outline>
    <contour>
      <point x="30" y="0" type="line"/>
      <point x="118" y="0" type="line"/>
      <point x="526" y="517" type="line"/>
      <point x="526" y="525" type="line"/>
      <point x="438" y="525" type="line"/>
      <point x="30" y="8" type="line"/>
    </contour>
  </outline>
</glyph>
<glyph name="peseta" format="2">
  <advance width="1254"/>
  <unicode hex="20A7"/>
  <anchor x="1388" y="0" name="bottom"/>
  <anchor x="902" y="322" name="middle"/>
  <anchor x="1388" y="595" name="top"/>
  <outline>
    <contour>
      <point x="75" y="0" type="line"/>
      <point x="173" y="0" type="line"/>
      <point x="173" y="763" type="line"/>
      <point x="75" y="763" type="line"/>
    </contour>
    <contour>
      <point x="110" y="683" type="line"/>
      <point x="294" y="683" type="line"/>
      <point x="294" y="763" type="line"/>
      <point x="110" y="763" type="line"/>
    </contour>
    <contour>
      <point x="110" y="327" type="line"/>
      <point x="294" y="327" type="line"/>
      <point x="294" y="407" type="line"/>
      <point x="110" y="407" type="line"/>
    </contour>
    <contour>
      <point x="294" y="763" type="curve"/>
      <point x="294" y="683" type="line"/>
      <point x="404" y="683"/>
      <point x="455" y="637"/>
      <point x="455" y="549" type="curve" smooth="yes"/>
      <point x="455" y="455"/>
      <point x="399" y="407"/>
      <point x="294" y="407" type="curve"/>
      <point x="294" y="327" type="line"/>
      <point x="456" y="327"/>
      <point x="553" y="410"/>
      <point x="553" y="546" type="curve" smooth="yes"/>
      <point x="553" y="682"/>
      <point x="456" y="763"/>
    </contour>
    <contour>
      <point x="682" y="644" type="line"/>
      <point x="594" y="644" type="line"/>
      <point x="594" y="591" type="line" smooth="yes"/>
      <point x="594" y="549"/>
      <point x="571" y="525"/>
      <point x="529" y="525" type="curve" smooth="yes"/>
      <point x="519" y="525" type="line"/>
      <point x="519" y="458" type="line"/>
      <point x="594" y="458" type="line"/>
      <point x="594" y="148" type="line" smooth="yes"/>
      <point x="594" y="43"/>
      <point x="641" y="0"/>
      <point x="753" y="0" type="curve" smooth="yes"/>
      <point x="800" y="0" type="line"/>
      <point x="800" y="70" type="line"/>
      <point x="746" y="70" type="line" smooth="yes"/>
      <point x="705" y="70"/>
      <point x="682" y="93"/>
      <point x="682" y="136" type="curve" smooth="yes"/>
      <point x="682" y="458" type="line"/>
      <point x="804" y="458" type="line"/>
      <point x="804" y="525" type="line"/>
      <point x="666" y="525" type="line"/>
      <point x="666" y="533" type="line"/>
      <point x="676" y="536"/>
      <point x="682" y="552"/>
      <point x="682" y="575" type="curve" smooth="yes"/>
    </contour>
    <contour>
      <point x="1204" y="154" type="curve" smooth="yes"/>
      <point x="1204" y="251"/>
      <point x="1131" y="304"/>
      <point x="980" y="312" type="curve" smooth="yes"/>
      <point x="885" y="317"/>
      <point x="861" y="338"/>
      <point x="861" y="382" type="curve" smooth="yes"/>
      <point x="861" y="441"/>
      <point x="903" y="470"/>
      <point x="972" y="470" type="curve" smooth="yes"/>
      <point x="1054" y="470"/>
      <point x="1103" y="429"/>
      <point x="1115" y="353" type="curve"/>
      <point x="1203" y="353" type="line"/>
      <point x="1203" y="361" type="line"/>
      <point x="1194" y="469"/>
      <point x="1104" y="540"/>
      <point x="974" y="540" type="curve" smooth="yes"/>
      <point x="854" y="540"/>
      <point x="774" y="479"/>
      <point x="774" y="375" type="curve" smooth="yes"/>
      <point x="774" y="282"/>
      <point x="837" y="236"/>
      <point x="979" y="229" type="curve" smooth="yes"/>
      <point x="1078" y="224"/>
      <point x="1117" y="201"/>
      <point x="1117" y="149" type="curve" smooth="yes"/>
      <point x="1117" y="93"/>
      <point x="1071" y="55"/>
      <point x="993" y="55" type="curve" smooth="yes"/>
      <point x="911" y="55"/>
      <point x="859" y="98"/>
      <point x="847" y="174" type="curve"/>
      <point x="759" y="174" type="line"/>
      <point x="759" y="166" type="line"/>
      <point x="769" y="58"/>
      <point x="862" y="-15"/>
      <point x="995" y="-15" type="curve" smooth="yes"/>
      <point x="1120" y="-15"/>
      <point x="1204" y="49"/>
    </contour>
  </outline>
</glyph>
<glyph name="numero" format="2">
  <advance width="1180"/>
  <unicode hex="2116"/>
  <outline>
    <component base="N"/>
    <contour>
      <point x="754" y="576" type="curve" smooth="yes"/>
      <point x="754" y="453"/>
      <point x="832" y="372"/>
      <point x="952" y="372" type="curve" smooth="yes"/>
      <point x="1072" y="372"/>
      <point x="1150" y="453"/>
      <point x="1150" y="576" type="curve" smooth="yes"/>
      <point x="1150" y="699"/>
      <point x="1072" y="778"/>
      <point x="952" y="778" type="curve" smooth="yes"/>
      <point x="832" y="778"/>
      <point x="754" y="697"/>
    </contour>
    <contour>
      <point x="842" y="577" type="curve" smooth="yes"/>
      <point x="842" y="656"/>
      <point x="886" y="708"/>
      <point x="952" y="708" type="curve" smooth="yes"/>
      <point x="1019" y="708"/>
      <point x="1062" y="656"/>
      <point x="1062" y="577" type="curve" smooth="yes"/>
      <point x="1062" y="494"/>
      <point x="1019" y="442"/>
      <point x="952" y="442" type="curve" smooth="yes"/>
      <point x="886" y="442"/>
      <point x="842" y="494"/>
    </contour>
    <contour>
      <point x="768" y="240" type="line"/>
      <point x="1136" y="240" type="line"/>
      <point x="1136" y="310" type="line"/>
      <point x="768" y="310" type="line"/>
    </contour>
  </outline>
</glyph>
<glyph name="trademark" format="2">
  <advance width="785"/>
  <unicode hex="2122"/>
  <outline>
    <contour>
      <point x="160" y="436" type="line"/>
      <point x="220" y="436" type="line"/>
      <point x="220" y="718" type="line"/>
      <point x="350" y="718" type="line"/>
      <point x="350" y="763" type="line"/>
      <point x="30" y="763" type="line"/>
      <point x="30" y="718" type="line"/>
      <point x="160" y="718" type="line"/>
    </contour>
    <contour>
      <point x="379" y="763" type="line"/>
      <point x="379" y="436" type="line"/>
      <point x="439" y="436" type="line"/>
      <point x="439" y="706" type="line"/>
      <point x="447" y="706" type="line"/>
      <point x="502" y="436" type="line"/>
      <point x="588" y="436" type="line"/>
      <point x="642" y="706" type="line"/>
      <point x="650" y="706" type="line"/>
      <point x="650" y="436" type="line"/>
      <point x="710" y="436" type="line"/>
      <point x="710" y="763" type="line"/>
      <point x="608" y="763" type="line"/>
      <point x="550" y="493" type="line"/>
      <point x="542" y="493" type="line"/>
      <point x="483" y="763" type="line"/>
    </contour>
  </outline>
</glyph>
<glyph name="estimated" format="2">
  <advance width="650"/>
  <unicode hex="212E"/>
  <outline>
    <contour>
      <point x="600" y="252" type="line"/>
      <point x="600" y="424"/>
      <point x="487" y="540"/>
      <point x="322" y="540" type="curve" smooth="yes"/>
      <point x="161" y="540"/>
      <point x="50" y="430"/>
      <point x="50" y="263" type="curve" smooth="yes"/>
      <point x="50" y="97"/>
      <point x="159" y="-15"/>
      <point x="323" y="-15" type="curve" smooth="yes"/>
      <point x="450" y="-15"/>
      <point x="555" y="52"/>
      <point x="584" y="151" type="curve"/>
      <point x="545" y="166" type="line"/>
      <point x="519" y="83"/>
      <point x="431" y="25"/>
      <point x="325" y="25" type="curve" smooth="yes"/>
      <point x="266" y="25"/>
      <point x="219" y="43"/>
      <point x="184" y="73" type="curve"/>
      <point x="184" y="252" type="line"/>
    </contour>
    <contour>
      <point x="184" y="292" type="line"/>
      <point x="184" y="453" type="line"/>
      <point x="220" y="483"/>
      <point x="266" y="500"/>
      <point x="319" y="500" type="curve" smooth="yes"/>
      <point x="378" y="500"/>
      <point x="428" y="479"/>
      <point x="466" y="444" type="curve"/>
      <point x="466" y="292" type="line"/>
    </contour>
  </outline>
</glyph>
<glyph name="approxequal" format="2">
  <advance width="596"/>
  <unicode hex="2248"/>
  <outline>
    <contour>
      <point x="111" y="179" type="curve"/>
      <point x="181" y="173" type="line"/>
      <point x="186" y="219"/>
      <point x="193" y="231"/>
      <point x="211" y="231" type="curve" smooth="yes"/>
      <point x="256" y="231"/>
      <point x="287" y="159"/>
      <point x="377" y="159" type="curve" smooth="yes"/>
      <point x="439" y="159"/>
      <point x="506" y="193"/>
      <point x="546" y="255" type="curve"/>
      <point x="485" y="290" type="line"/>
      <point x="465" y="250"/>
      <point x="424" y="229"/>
      <point x="377" y="229" type="curve" smooth="yes"/>
      <point x="290" y="229"/>
      <point x="284" y="302"/>
      <point x="213" y="302" type="curve" smooth="yes"/>
      <point x="157" y="302"/>
      <point x="117" y="256"/>
    </contour>
    <contour>
      <point x="485" y="414" type="curve"/>
      <point x="415" y="420" type="line"/>
      <point x="410" y="374"/>
      <point x="403" y="362"/>
      <point x="385" y="362" type="curve" smooth="yes"/>
      <point x="340" y="362"/>
      <point x="309" y="434"/>
      <point x="219" y="434" type="curve" smooth="yes"/>
      <point x="157" y="434"/>
      <point x="90" y="400"/>
      <point x="50" y="338" type="curve"/>
      <point x="111" y="303" type="line"/>
      <point x="131" y="343"/>
      <point x="172" y="364"/>
      <point x="219" y="364" type="curve" smooth="yes"/>
      <point x="306" y="364"/>
      <point x="312" y="291"/>
      <point x="383" y="291" type="curve" smooth="yes"/>
      <point x="439" y="291"/>
      <point x="479" y="337"/>
    </contour>
  </outline>
</glyph>
<glyph name="fl" format="2">
  <advance width="625"/>
  <unicode hex="FB02"/>
  <outline>
    <contour>
      <point x="118" y="615" type="curve" smooth="yes"/>
      <point x="118" y="591" type="line" smooth="yes"/>
      <point x="118" y="549"/>
      <point x="95" y="525"/>
      <point x="53" y="525" type="curve" smooth="yes"/>
      <point x="30" y="525" type="line"/>
      <point x="30" y="458" type="line"/>
      <point x="118" y="458" type="line"/>
      <point x="118" y="421"/>
      <point x="118" y="153"/>
      <point x="118" y="0" type="curve"/>
      <point x="206" y="0" type="line"/>
      <point x="206" y="142"/>
      <point x="206" y="357"/>
      <point x="206" y="458" type="curve"/>
      <point x="489" y="458" type="line"/>
      <point x="489" y="525" type="line"/>
      <point x="195" y="525" type="line"/>
      <point x="195" y="533" type="line"/>
      <point x="202" y="536"/>
      <point x="206" y="549"/>
      <point x="206" y="575" type="curve" smooth="yes"/>
      <point x="206" y="630" type="line" smooth="yes"/>
      <point x="206" y="671"/>
      <point x="229" y="693"/>
      <point x="270" y="693" type="curve" smooth="yes"/>
      <point x="489" y="693" type="line"/>
      <point x="489" y="763" type="line"/>
      <point x="465" y="763"/>
      <point x="302" y="763"/>
      <point x="277" y="763" type="curve" smooth="yes"/>
      <point x="165" y="763"/>
      <point x="118" y="720"/>
    </contour>
    <contour>
      <point x="462" y="763" type="line"/>
      <point x="462" y="0" type="line"/>
      <point x="550" y="0" type="line"/>
      <point x="550" y="763" type="line"/>
    </contour>
  </outline>
</glyph>
<glyph name="f_f_i" format="2">
  <advance width="990"/>
  <unicode hex="FB03"/>
  <outline>
    <contour>
      <point x="118" y="615" type="curve" smooth="yes"/>
      <point x="118" y="591" type="line" smooth="yes"/>
      <point x="118" y="549"/>
      <point x="95" y="525"/>
      <point x="53" y="525" type="curve" smooth="yes"/>
      <point x="30" y="525" type="line"/>
      <point x="30" y="458" type="line"/>
      <point x="118" y="458" type="line"/>
      <point x="118" y="421"/>
      <point x="118" y="153"/>
      <point x="118" y="0" type="curve"/>
      <point x="206" y="0" type="line"/>
      <point x="206" y="142"/>
      <point x="206" y="357"/>
      <point x="206" y="458" type="curve"/>
      <point x="483" y="458" type="line"/>
      <point x="483" y="421"/>
      <point x="483" y="153"/>
      <point x="483" y="0" type="curve"/>
      <point x="571" y="0" type="line"/>
      <point x="571" y="142"/>
      <point x="571" y="357"/>
      <point x="571" y="458" type="curve"/>
      <point x="827" y="458" type="line"/>
      <point x="827" y="525" type="line"/>
      <point x="560" y="525" type="line"/>
      <point x="560" y="533" type="line"/>
      <point x="567" y="536"/>
      <point x="571" y="549"/>
      <point x="571" y="575" type="curve" smooth="yes"/>
      <point x="571" y="630" type="line" smooth="yes"/>
      <point x="571" y="671"/>
      <point x="594" y="693"/>
      <point x="635" y="693" type="curve" smooth="yes"/>
      <point x="915" y="693" type="line"/>
      <point x="915" y="763" type="line"/>
      <point x="642" y="763" type="line" smooth="yes"/>
      <point x="566" y="763"/>
      <point x="531" y="748"/>
      <point x="520" y="710" type="curve"/>
      <point x="512" y="710" type="line"/>
      <point x="495" y="746"/>
      <point x="453" y="763"/>
      <point x="396" y="763" type="curve" smooth="yes"/>
      <point x="277" y="763" type="line" smooth="yes"/>
      <point x="165" y="763"/>
      <point x="118" y="720"/>
    </contour>
    <contour>
      <point x="483" y="615" type="curve" smooth="yes"/>
      <point x="483" y="591" type="line" smooth="yes"/>
      <point x="483" y="549"/>
      <point x="460" y="525"/>
      <point x="418" y="525" type="curve" smooth="yes"/>
      <point x="195" y="525" type="line"/>
      <point x="195" y="533" type="line"/>
      <point x="202" y="536"/>
      <point x="206" y="549"/>
      <point x="206" y="575" type="curve" smooth="yes"/>
      <point x="206" y="630" type="line" smooth="yes"/>
      <point x="206" y="671"/>
      <point x="229" y="693"/>
      <point x="270" y="693" type="curve" smooth="yes"/>
      <point x="408" y="693" type="line" smooth="yes"/>
      <point x="462" y="693"/>
      <point x="483" y="672"/>
    </contour>
    <contour>
      <point x="827" y="525" type="line"/>
      <point x="827" y="0" type="line"/>
      <point x="915" y="0" type="line"/>
      <point x="915" y="525" type="line"/>
    </contour>
  </outline>
</glyph>
<glyph name=".notdef" format="2">
  <advance width="500"/>
  <outline>
    <contour>
      <point x="0" y="0" type="line"/>
      <point x="500" y="0" type="line"/>
      <point x="500" y="763" type="line"/>
      <point x="0" y="763" type="line"/>
    </contour>
    <contour>
      <point x="88" y="70" type="line"/>
      <point x="88" y="693" type="line"/>
      <point x="412" y="693" type="line"/>
      <point x="412" y="70" type="line"/>
    </contour>
  </outline>
</glyph>
<glyph name="caron.salt" format="2">
  <advance width="250"/>
  <anchor x="-35" y="763" name="_top"/>
  <outline>
    <contour>
      <point x="75" y="533" type="line"/>
      <point x="75" y="525" type="line"/>
      <point x="135" y="525" type="line"/>
      <point x="190" y="685" type="line" smooth="yes"/>
      <point x="190" y="693" type="line"/>
      <point x="102" y="693" type="line"/>
    </contour>
  </outline>
</glyph>
<glyph name="g.ss01" format="2">
  <advance width="609"/>
  <anchor x="291" y="595" name="bottom"/>
  <anchor x="301" y="595" name="top"/>
  <outline>
    <contour>
      <point x="398" y="67" type="curve" smooth="yes"/>
      <point x="194" y="67" type="line" smooth="yes"/>
      <point x="160" y="67"/>
      <point x="143" y="78"/>
      <point x="143" y="103" type="curve" smooth="yes"/>
      <point x="143" y="132"/>
      <point x="163" y="147"/>
      <point x="213" y="149" type="curve"/>
      <point x="242" y="138"/>
      <point x="265" y="134"/>
      <point x="302" y="134" type="curve" smooth="yes"/>
      <point x="438" y="134"/>
      <point x="529" y="218"/>
      <point x="529" y="342" type="curve" smooth="yes"/>
      <point x="529" y="419" type="line" smooth="yes"/>
      <point x="529" y="445"/>
      <point x="538" y="455"/>
      <point x="559" y="455" type="curve" smooth="yes"/>
      <point x="579" y="455" type="line"/>
      <point x="579" y="525" type="line"/>
      <point x="542" y="525" type="line" smooth="yes"/>
      <point x="506" y="525"/>
      <point x="482" y="506"/>
      <point x="475" y="470" type="curve"/>
      <point x="467" y="470" type="line"/>
      <point x="430" y="521"/>
      <point x="370" y="540"/>
      <point x="300" y="540" type="curve" smooth="yes"/>
      <point x="161" y="540"/>
      <point x="70" y="458"/>
      <point x="70" y="336" type="curve" smooth="yes"/>
      <point x="70" y="279"/>
      <point x="90" y="229"/>
      <point x="127" y="196" type="curve"/>
      <point x="127" y="188" type="line"/>
      <point x="73" y="179"/>
      <point x="55" y="145"/>
      <point x="55" y="102" type="curve" smooth="yes"/>
      <point x="55" y="31"/>
      <point x="105" y="0"/>
      <point x="178" y="0" type="curve" smooth="yes"/>
      <point x="398" y="0" type="line" smooth="yes"/>
      <point x="454" y="0"/>
      <point x="491" y="-33"/>
      <point x="491" y="-84" type="curve" smooth="yes"/>
      <point x="491" y="-134"/>
      <point x="454" y="-167"/>
      <point x="398" y="-167" type="curve" smooth="yes"/>
      <point x="55" y="-167" type="line"/>
      <point x="55" y="-237" type="line"/>
      <point x="398" y="-237" type="line" smooth="yes"/>
      <point x="507" y="-237"/>
      <point x="579" y="-176"/>
      <point x="579" y="-85" type="curve" smooth="yes"/>
      <point x="579" y="6"/>
      <point x="507" y="67"/>
    </contour>
    <contour>
      <point x="158" y="339" type="curve" smooth="yes"/>
      <point x="158" y="420"/>
      <point x="215" y="473"/>
      <point x="301" y="473" type="curve" smooth="yes"/>
      <point x="386" y="473"/>
      <point x="441" y="420"/>
      <point x="441" y="339" type="curve" smooth="yes"/>
      <point x="441" y="256"/>
      <point x="385" y="201"/>
      <point x="300" y="201" type="curve" smooth="yes"/>
      <point x="214" y="201"/>
      <point x="158" y="256"/>
    </contour>
  </outline>
</glyph>
<glyph name="macron.case" format="2">
  <advance width="253"/>
  <outline>
    <contour>
      <point x="314" y="888" type="line"/>
      <point x="314" y="958" type="line"/>
      <point x="-61" y="958" type="line"/>
      <point x="-61" y="888" type="line"/>
    </contour>
  </outline>
</glyph>
<glyph name="ogonek.salt" format="2">
  <advance width="253"/>
  <anchor x="131" y="0" name="_ogonek"/>
  <outline>
    <contour>
      <point x="113" y="-105" type="curve" smooth="yes"/>
      <point x="113" y="-145"/>
      <point x="132" y="-167"/>
      <point x="164" y="-167" type="curve" smooth="yes"/>
      <point x="219" y="-167" type="line"/>
      <point x="219" y="-237" type="line"/>
      <point x="154" y="-237" type="line" smooth="yes"/>
      <point x="71" y="-237"/>
      <point x="25" y="-201"/>
      <point x="25" y="-136" type="curve" smooth="yes"/>
      <point x="25" y="-94"/>
      <point x="44" y="-54"/>
      <point x="85" y="-9" type="curve" smooth="yes"/>
      <point x="188" y="102" type="line"/>
      <point x="212" y="97" type="line"/>
      <point x="133" y="-40" type="line" smooth="yes"/>
      <point x="121" y="-61"/>
      <point x="113" y="-79"/>
    </contour>
  </outline>
</glyph>
<glyph name="ring.case" format="2">
  <advance width="253"/>
  <anchor x="127" y="833" name="_ring"/>
  <outline>
    <contour>
      <point x="23" y="932" type="curve" smooth="yes"/>
      <point x="23" y="876"/>
      <point x="64" y="838"/>
      <point x="128" y="838" type="curve" smooth="yes"/>
      <point x="189" y="838"/>
      <point x="231" y="876"/>
      <point x="231" y="932" type="curve" smooth="yes"/>
      <point x="231" y="989"/>
      <point x="189" y="1026"/>
      <point x="128" y="1026" type="curve" smooth="yes"/>
      <point x="64" y="1026"/>
      <point x="23" y="989"/>
    </contour>
    <contour>
      <point x="83" y="932" type="curve" smooth="yes"/>
      <point x="83" y="962"/>
      <point x="100" y="981"/>
      <point x="127" y="981" type="curve" smooth="yes"/>
      <point x="153" y="981"/>
      <point x="171" y="962"/>
      <point x="171" y="932" type="curve" smooth="yes"/>
      <point x="171" y="903"/>
      <point x="153" y="883"/>
      <point x="127" y="883" type="curve" smooth="yes"/>
      <point x="100" y="883"/>
      <point x="83" y="903"/>
    </contour>
  </outline>
</glyph>
